<svg width="1829" height="1515" viewBox="0 0 1829 1515" fill="none" xmlns="http://www.w3.org/2000/svg">
<path d="M796.177 907.091H780.77V924.806H796.177V907.091Z" fill="white"/>
<path d="M822.94 907.091H807.532V924.806H822.94V907.091Z" fill="white"/>
<path d="M849.661 907.091H834.253V924.806H849.661V907.091Z" fill="white"/>
<path d="M796.177 933.699H780.77V951.414H796.177V933.699Z" fill="white"/>
<path d="M822.94 933.699H807.532V951.414H822.94V933.699Z" fill="white"/>
<path d="M849.661 933.699H834.253V951.414H849.661V933.699Z" fill="white"/>
<path d="M796.177 960.342H780.77V978.057H796.177V960.342Z" fill="white"/>
<path d="M822.94 960.342H807.532V978.057H822.94V960.342Z" fill="white"/>
<path d="M849.661 960.342H834.253V978.057H849.661V960.342Z" fill="white"/>
<path d="M796.177 986.985H780.77V1004.7H796.177V986.985Z" fill="white"/>
<path d="M822.94 986.985H807.532V1004.7H822.94V986.985Z" fill="white"/>
<path d="M849.661 986.985H834.253V1004.7H849.661V986.985Z" fill="white"/>
<path d="M1330.34 899.151H1314.93V913.901H1330.34V899.151Z" fill="white"/>
<path d="M1357.1 899.151H1341.69V913.901H1357.1V899.151Z" fill="white"/>
<path d="M1383.82 899.151H1368.42V913.901H1383.82V899.151Z" fill="white"/>
<path d="M1330.34 921.383H1314.93V936.134H1330.34V921.383Z" fill="white"/>
<path d="M1357.1 921.383H1341.69V936.134H1357.1V921.383Z" fill="white"/>
<path d="M1383.82 921.383H1368.42V936.134H1383.82V921.383Z" fill="white"/>
<path d="M1330.34 943.58H1314.93V958.33H1330.34V943.58Z" fill="white"/>
<path d="M1357.1 943.58H1341.69V958.33H1357.1V943.58Z" fill="white"/>
<path d="M1383.82 943.58H1368.42V958.33H1383.82V943.58Z" fill="white"/>
<path d="M1330.34 965.812H1314.93V980.562H1330.34V965.812Z" fill="white"/>
<path d="M1357.1 965.812H1341.69V980.562H1357.1V965.812Z" fill="white"/>
<path d="M1383.82 965.812H1368.42V980.562H1383.82V965.812Z" fill="white"/>
<path d="M1330.34 988.573H1314.93V1003.32H1330.34V988.573Z" fill="white"/>
<path d="M1357.1 988.573H1341.69V1003.32H1357.1V988.573Z" fill="white"/>
<path d="M1383.82 988.573H1368.42V1003.32H1383.82V988.573Z" fill="white"/>
<path d="M1330.34 1011.33H1314.93V1026.09H1330.34V1011.33Z" fill="white"/>
<path d="M1357.1 1011.33H1341.69V1026.09H1357.1V1011.33Z" fill="white"/>
<path d="M1383.82 1011.33H1368.42V1026.09H1383.82V1011.33Z" fill="white"/>
<path d="M1330.34 1034.1H1314.93V1048.85H1330.34V1034.1Z" fill="white"/>
<path d="M1357.1 1034.1H1341.69V1048.85H1357.1V1034.1Z" fill="white"/>
<path d="M1383.82 1034.1H1368.42V1048.85H1383.82V1034.1Z" fill="white"/>
<path d="M1330.34 1056.89H1314.93V1071.64H1330.34V1056.89Z" fill="white"/>
<path d="M1357.1 1056.89H1341.69V1071.64H1357.1V1056.89Z" fill="white"/>
<path d="M1383.82 1056.89H1368.42V1071.64H1383.82V1056.89Z" fill="white"/>
<path d="M986.262 837.571H897.446V848.652H986.262V837.571Z" fill="white"/>
<path d="M986.262 859.027H897.446V870.108H986.262V859.027Z" fill="white"/>
<path d="M986.262 880.518H897.446V891.599H986.262V880.518Z" fill="white"/>
<path d="M986.262 902.009H897.446V913.09H986.262V902.009Z" fill="white"/>
<path d="M986.262 923.465H897.446V934.546H986.262V923.465Z" fill="white"/>
<path d="M986.262 944.956H897.446V956.036H986.262V944.956Z" fill="white"/>
<path d="M986.262 966.447H897.446V977.527H986.262V966.447Z" fill="white"/>
<path d="M986.262 987.902H897.446V998.983H986.262V987.902Z" fill="white"/>
<path d="M1625.66 889.305H1544.02V900.386H1625.66V889.305Z" fill="white"/>
<path d="M1625.66 910.796H1544.02V921.877H1625.66V910.796Z" fill="white"/>
<path d="M1625.66 932.252H1544.02V943.332H1625.66V932.252Z" fill="white"/>
<path d="M1625.66 953.743H1544.02V964.823H1625.66V953.743Z" fill="white"/>
<path d="M1625.66 975.234H1544.02V986.314H1625.66V975.234Z" fill="white"/>
<path d="M1625.66 996.689H1544.02V1007.77H1625.66V996.689Z" fill="white"/>
<path d="M1625.66 1018.18H1544.02V1029.26H1625.66V1018.18Z" fill="white"/>
<path d="M1625.66 1039.67H1544.02V1050.75H1625.66V1039.67Z" fill="white"/>
<path d="M1625.66 1060.07H1544.02V1071.15H1625.66V1060.07Z" fill="white"/>
<path d="M1625.66 1080.47H1544.02V1091.55H1625.66V1080.47Z" fill="white"/>
<path d="M1625.66 1100.9H1544.02V1111.98H1625.66V1100.9Z" fill="white"/>
<path d="M1625.66 1121.29H1544.02V1132.38H1625.66V1121.29Z" fill="white"/>
<path d="M1625.66 1141.69H1544.02V1152.77H1625.66V1141.69Z" fill="white"/>
<path d="M1757.7 915.242H1671.46V926.323H1757.7V915.242Z" fill="white"/>
<path d="M1757.7 936.733H1671.46V947.814H1757.7V936.733Z" fill="white"/>
<path d="M1757.7 958.224H1671.46V969.305H1757.7V958.224Z" fill="white"/>
<path d="M1757.7 979.68H1671.46V990.761H1757.7V979.68Z" fill="white"/>
<path d="M1757.7 1001.17H1671.46V1012.25H1757.7V1001.17Z" fill="white"/>
<path d="M1757.7 1022.63H1671.46V1033.71H1757.7V1022.63Z" fill="white"/>
<path d="M1757.7 1044.12H1671.46V1055.2H1757.7V1044.12Z" fill="white"/>
<path d="M1757.7 1065.61H1671.46V1076.69H1757.7V1065.61Z" fill="white"/>
<path d="M1757.7 1084.84H1671.46V1095.92H1757.7V1084.84Z" fill="white"/>
<path d="M1757.7 1104.04H1671.46V1115.12H1757.7V1104.04Z" fill="white"/>
<path d="M1757.7 1123.27H1671.46V1134.35H1757.7V1123.27Z" fill="white"/>
<path d="M1237.89 873.178H1210.45V883.871H1237.89V873.178Z" fill="white"/>
<path d="M1237.89 893.928H1210.45V904.62H1237.89V893.928Z" fill="white"/>
<path d="M1237.89 914.678H1210.45V925.37H1237.89V914.678Z" fill="white"/>
<path d="M1237.89 935.392H1210.45V946.085H1237.89V935.392Z" fill="white"/>
<path d="M1237.89 956.142H1210.45V966.835H1237.89V956.142Z" fill="white"/>
<path d="M1237.89 976.892H1210.45V987.585H1237.89V976.892Z" fill="white"/>
<path d="M1237.89 997.642H1210.45V1008.33H1237.89V997.642Z" fill="white"/>
<path d="M1237.89 1018.39H1210.45V1029.08H1237.89V1018.39Z" fill="white"/>
<path d="M1275.21 873.178H1247.77V883.871H1275.21V873.178Z" fill="white"/>
<path d="M1275.21 893.928H1247.77V904.62H1275.21V893.928Z" fill="white"/>
<path d="M1275.21 914.678H1247.77V925.37H1275.21V914.678Z" fill="white"/>
<path d="M1275.21 935.392H1247.77V946.085H1275.21V935.392Z" fill="white"/>
<path d="M1275.21 956.142H1247.77V966.835H1275.21V956.142Z" fill="white"/>
<path d="M1275.21 976.892H1247.77V987.585H1275.21V976.892Z" fill="white"/>
<path d="M1275.21 997.642H1247.77V1008.33H1275.21V997.642Z" fill="white"/>
<path d="M1275.21 1018.39H1247.77V1029.08H1275.21V1018.39Z" fill="white"/>
<path d="M1059.42 796.213H1030.84V813.081H1059.42V796.213Z" fill="white"/>
<path d="M1102.05 796.213H1073.47V813.081H1102.05V796.213Z" fill="white"/>
<path d="M1059.42 820.986H1030.84V837.854H1059.42V820.986Z" fill="white"/>
<path d="M1102.05 820.986H1073.47V837.854H1102.05V820.986Z" fill="white"/>
<path d="M1059.42 845.758H1030.84V862.627H1059.42V845.758Z" fill="white"/>
<path d="M1102.05 845.758H1073.47V862.627H1102.05V845.758Z" fill="white"/>
<path d="M1059.42 870.531H1030.84V887.399H1059.42V870.531Z" fill="white"/>
<path d="M1102.05 870.531H1073.47V887.399H1102.05V870.531Z" fill="white"/>
<path d="M1059.42 895.304H1030.84V912.172H1059.42V895.304Z" fill="white"/>
<path d="M1102.05 895.304H1073.47V912.172H1102.05V895.304Z" fill="white"/>
<path d="M1059.42 920.042H1030.84V936.91H1059.42V920.042Z" fill="white"/>
<path d="M1102.05 920.042H1073.47V936.91H1102.05V920.042Z" fill="white"/>
<path d="M1059.42 944.815H1030.84V961.683H1059.42V944.815Z" fill="white"/>
<path d="M1102.05 944.815H1073.47V961.683H1102.05V944.815Z" fill="white"/>
<path d="M1059.42 969.587H1030.84V986.456H1059.42V969.587Z" fill="white"/>
<path d="M1102.05 969.587H1073.47V986.456H1102.05V969.587Z" fill="white"/>
<path d="M1154.82 845.758H1126.24V862.627H1154.82V845.758Z" fill="white"/>
<path d="M1154.82 870.531H1126.24V887.399H1154.82V870.531Z" fill="white"/>
<path d="M1154.82 895.304H1126.24V912.172H1154.82V895.304Z" fill="white"/>
<path d="M1154.82 920.042H1126.24V936.91H1154.82V920.042Z" fill="white"/>
<path d="M1154.82 944.815H1126.24V961.683H1154.82V944.815Z" fill="white"/>
<path d="M1154.82 969.587H1126.24V986.456H1154.82V969.587Z" fill="white"/>
<path d="M1059.42 994.043H1030.84V1010.91H1059.42V994.043Z" fill="white"/>
<path d="M1102.05 994.043H1073.47V1010.91H1102.05V994.043Z" fill="white"/>
<path d="M1154.82 994.043H1126.24V1010.91H1154.82V994.043Z" fill="white"/>
<path d="M1059.42 1018.53H1030.84V1035.4H1059.42V1018.53Z" fill="white"/>
<path d="M1102.05 1018.53H1073.47V1035.4H1102.05V1018.53Z" fill="white"/>
<path d="M1154.82 1018.53H1126.24V1035.4H1154.82V1018.53Z" fill="white"/>
<path d="M1059.42 1042.99H1030.84V1059.86H1059.42V1042.99Z" fill="white"/>
<path d="M1102.05 1042.99H1073.47V1059.86H1102.05V1042.99Z" fill="white"/>
<path d="M1154.82 1042.99H1126.24V1059.86H1154.82V1042.99Z" fill="white"/>
<path d="M1059.42 1067.48H1030.84V1084.35H1059.42V1067.48Z" fill="white"/>
<path d="M1102.05 1067.48H1073.47V1084.35H1102.05V1067.48Z" fill="white"/>
<path d="M1154.82 1067.48H1126.24V1084.35H1154.82V1067.48Z" fill="white"/>
<path d="M1059.42 1091.93H1030.84V1108.8H1059.42V1091.93Z" fill="white"/>
<path d="M1102.05 1091.93H1073.47V1108.8H1102.05V1091.93Z" fill="white"/>
<path d="M1154.82 1091.93H1126.24V1108.8H1154.82V1091.93Z" fill="white"/>
<path d="M1412.91 820.28H1397.5V835.031H1412.91V820.28Z" fill="white"/>
<path d="M1439.67 820.28H1424.26V835.031H1439.67V820.28Z" fill="white"/>
<path d="M1412.91 842.512H1397.5V857.263H1412.91V842.512Z" fill="white"/>
<path d="M1439.67 842.512H1424.26V857.263H1439.67V842.512Z" fill="white"/>
<path d="M1412.91 864.744H1397.5V879.495H1412.91V864.744Z" fill="white"/>
<path d="M1439.67 864.744H1424.26V879.495H1439.67V864.744Z" fill="white"/>
<path d="M1412.91 886.941H1397.5V901.692H1412.91V886.941Z" fill="white"/>
<path d="M1439.67 886.941H1424.26V901.692H1439.67V886.941Z" fill="white"/>
<path d="M1412.91 909.702H1397.5V924.453H1412.91V909.702Z" fill="white"/>
<path d="M1439.67 909.702H1424.26V924.453H1439.67V909.702Z" fill="white"/>
<path d="M1412.91 932.499H1397.5V947.25H1412.91V932.499Z" fill="white"/>
<path d="M1439.67 932.499H1424.26V947.25H1439.67V932.499Z" fill="white"/>
<path d="M1412.91 955.26H1397.5V970.011H1412.91V955.26Z" fill="white"/>
<path d="M1439.67 955.26H1424.26V970.011H1439.67V955.26Z" fill="white"/>
<path d="M1412.91 978.022H1397.5V992.772H1412.91V978.022Z" fill="white"/>
<path d="M1439.67 978.022H1424.26V992.772H1439.67V978.022Z" fill="white"/>
<path d="M1412.91 1001.03H1397.5V1015.78H1412.91V1001.03Z" fill="white"/>
<path d="M1439.67 1001.03H1424.26V1015.78H1439.67V1001.03Z" fill="white"/>
<path d="M1412.91 1024.04H1397.5V1038.79H1412.91V1024.04Z" fill="white"/>
<path d="M1439.67 1024.04H1424.26V1038.79H1439.67V1024.04Z" fill="white"/>
<path d="M1412.91 1047.05H1397.5V1061.8H1412.91V1047.05Z" fill="white"/>
<path d="M1439.67 1047.05H1424.26V1061.8H1439.67V1047.05Z" fill="white"/>
<path d="M1412.91 1070.06H1397.5V1084.81H1412.91V1070.06Z" fill="white"/>
<path d="M1439.67 1070.06H1424.26V1084.81H1439.67V1070.06Z" fill="white"/>
<path d="M1789.66 822.68H1774.25V840.077H1789.66V822.68Z" fill="white"/>
<path d="M1816.38 822.68H1800.97V840.077H1816.38V822.68Z" fill="white"/>
<path d="M1789.66 848.864H1774.25V866.261H1789.66V848.864Z" fill="white"/>
<path d="M1816.38 848.864H1800.97V866.261H1816.38V848.864Z" fill="white"/>
<path d="M1789.66 875.048H1774.25V892.446H1789.66V875.048Z" fill="white"/>
<path d="M1816.38 875.048H1800.97V892.446H1816.38V875.048Z" fill="white"/>
<path d="M1789.66 901.233H1774.25V918.63H1789.66V901.233Z" fill="white"/>
<path d="M1816.38 901.233H1800.97V918.63H1816.38V901.233Z" fill="white"/>
<path d="M1789.66 928.052H1774.25V945.45H1789.66V928.052Z" fill="white"/>
<path d="M1816.38 928.052H1800.97V945.45H1816.38V928.052Z" fill="white"/>
<path d="M1789.66 954.872H1774.25V972.269H1789.66V954.872Z" fill="white"/>
<path d="M1816.38 954.872H1800.97V972.269H1816.38V954.872Z" fill="white"/>
<path d="M1789.66 981.692H1774.25V999.089H1789.66V981.692Z" fill="white"/>
<path d="M1816.38 981.692H1800.97V999.089H1816.38V981.692Z" fill="white"/>
<path d="M1789.66 1008.51H1774.25V1025.91H1789.66V1008.51Z" fill="white"/>
<path d="M1816.38 1008.51H1800.97V1025.91H1816.38V1008.51Z" fill="white"/>
<path d="M1789.66 1035.61H1774.25V1053.01H1789.66V1035.61Z" fill="white"/>
<path d="M1816.38 1035.61H1800.97V1053.01H1816.38V1035.61Z" fill="white"/>
<path d="M1789.66 1062.72H1774.25V1080.11H1789.66V1062.72Z" fill="white"/>
<path d="M1816.38 1062.72H1800.97V1080.11H1816.38V1062.72Z" fill="white"/>
<path d="M1789.66 1089.85H1774.25V1107.25H1789.66V1089.85Z" fill="white"/>
<path d="M1816.38 1089.85H1800.97V1107.25H1816.38V1089.85Z" fill="white"/>
<path d="M1789.66 1116.95H1774.25V1134.35H1789.66V1116.95Z" fill="white"/>
<path d="M1816.38 1116.95H1800.97V1134.35H1816.38V1116.95Z" fill="white"/>
<path d="M1470.11 820.28H1454.7V835.031H1470.11V820.28Z" fill="white"/>
<path d="M1496.83 820.28H1481.42V835.031H1496.83V820.28Z" fill="white"/>
<path d="M1470.11 797.518H1454.7V812.269H1470.11V797.518Z" fill="white"/>
<path d="M1496.83 797.518H1481.42V812.269H1496.83V797.518Z" fill="white"/>
<path d="M1470.11 774.722H1454.7V789.473H1470.11V774.722Z" fill="white"/>
<path d="M1496.83 774.722H1481.42V789.473H1496.83V774.722Z" fill="white"/>
<path d="M1470.11 842.512H1454.7V857.263H1470.11V842.512Z" fill="white"/>
<path d="M1496.83 842.512H1481.42V857.263H1496.83V842.512Z" fill="white"/>
<path d="M1470.11 864.744H1454.7V879.495H1470.11V864.744Z" fill="white"/>
<path d="M1496.83 864.744H1481.42V879.495H1496.83V864.744Z" fill="white"/>
<path d="M1470.11 886.941H1454.7V901.692H1470.11V886.941Z" fill="white"/>
<path d="M1496.83 886.941H1481.42V901.692H1496.83V886.941Z" fill="white"/>
<path d="M1470.11 909.702H1454.7V924.453H1470.11V909.702Z" fill="white"/>
<path d="M1496.83 909.702H1481.42V924.453H1496.83V909.702Z" fill="white"/>
<path d="M1470.11 932.499H1454.7V947.25H1470.11V932.499Z" fill="white"/>
<path d="M1496.83 932.499H1481.42V947.25H1496.83V932.499Z" fill="white"/>
<path d="M1470.11 955.26H1454.7V970.011H1470.11V955.26Z" fill="white"/>
<path d="M1496.83 955.26H1481.42V970.011H1496.83V955.26Z" fill="white"/>
<path d="M1470.11 978.022H1454.7V992.772H1470.11V978.022Z" fill="white"/>
<path d="M1496.83 978.022H1481.42V992.772H1496.83V978.022Z" fill="white"/>
<path d="M1470.11 1001.03H1454.7V1015.78H1470.11V1001.03Z" fill="white"/>
<path d="M1496.83 1001.03H1481.42V1015.78H1496.83V1001.03Z" fill="white"/>
<path d="M1470.11 1024.04H1454.7V1038.79H1470.11V1024.04Z" fill="white"/>
<path d="M1496.83 1024.04H1481.42V1038.79H1496.83V1024.04Z" fill="white"/>
<path d="M1470.11 1047.05H1454.7V1061.8H1470.11V1047.05Z" fill="white"/>
<path d="M1496.83 1047.05H1481.42V1061.8H1496.83V1047.05Z" fill="white"/>
<path d="M1470.11 1070.06H1454.7V1084.81H1470.11V1070.06Z" fill="white"/>
<path d="M1496.83 1070.06H1481.42V1084.81H1496.83V1070.06Z" fill="white"/>
<path d="M34.8678 868.273H19.4601V885.988H34.8678V868.273Z" fill="white"/>
<path d="M61.5886 868.273H46.1809V885.988H61.5886V868.273Z" fill="white"/>
<path d="M88.3516 868.273H72.9438V885.988H88.3516V868.273Z" fill="white"/>
<path d="M34.8678 894.881H19.4601V912.596H34.8678V894.881Z" fill="white"/>
<path d="M61.5886 894.881H46.1809V912.596H61.5886V894.881Z" fill="white"/>
<path d="M88.3516 894.881H72.9438V912.596H88.3516V894.881Z" fill="white"/>
<path d="M34.8678 921.524H19.4601V939.239H34.8678V921.524Z" fill="white"/>
<path d="M61.5886 921.524H46.1809V939.239H61.5886V921.524Z" fill="white"/>
<path d="M88.3516 921.524H72.9438V939.239H88.3516V921.524Z" fill="white"/>
<path d="M34.8678 948.167H19.4601V965.882H34.8678V948.167Z" fill="white"/>
<path d="M61.5886 948.167H46.1809V965.882H61.5886V948.167Z" fill="white"/>
<path d="M88.3516 948.167H72.9438V965.882H88.3516V948.167Z" fill="white"/>
<path d="M569.03 899.151H553.622V913.901H569.03V899.151Z" fill="white"/>
<path d="M595.75 899.151H580.343V913.901H595.75V899.151Z" fill="white"/>
<path d="M622.513 899.151H607.106V913.901H622.513V899.151Z" fill="white"/>
<path d="M569.03 921.383H553.622V936.134H569.03V921.383Z" fill="white"/>
<path d="M595.75 921.383H580.343V936.134H595.75V921.383Z" fill="white"/>
<path d="M622.513 921.383H607.106V936.134H622.513V921.383Z" fill="white"/>
<path d="M569.03 943.58H553.622V958.33H569.03V943.58Z" fill="white"/>
<path d="M595.75 943.58H580.343V958.33H595.75V943.58Z" fill="white"/>
<path d="M622.513 943.58H607.106V958.33H622.513V943.58Z" fill="white"/>
<path d="M569.03 965.812H553.622V980.562H569.03V965.812Z" fill="white"/>
<path d="M595.75 965.812H580.343V980.562H595.75V965.812Z" fill="white"/>
<path d="M622.513 965.812H607.106V980.562H622.513V965.812Z" fill="white"/>
<path d="M569.03 988.573H553.622V1003.32H569.03V988.573Z" fill="white"/>
<path d="M595.75 988.573H580.343V1003.32H595.75V988.573Z" fill="white"/>
<path d="M622.513 988.573H607.106V1003.32H622.513V988.573Z" fill="white"/>
<path d="M569.03 1011.33H553.622V1026.09H569.03V1011.33Z" fill="white"/>
<path d="M595.75 1011.33H580.343V1026.09H595.75V1011.33Z" fill="white"/>
<path d="M622.513 1011.33H607.106V1026.09H622.513V1011.33Z" fill="white"/>
<path d="M569.03 1034.1H553.622V1048.85H569.03V1034.1Z" fill="white"/>
<path d="M595.75 1034.1H580.343V1048.85H595.75V1034.1Z" fill="white"/>
<path d="M622.513 1034.1H607.106V1048.85H622.513V1034.1Z" fill="white"/>
<path d="M569.03 1056.89H553.622V1071.64H569.03V1056.89Z" fill="white"/>
<path d="M595.75 1056.89H580.343V1071.64H595.75V1056.89Z" fill="white"/>
<path d="M622.513 1056.89H607.106V1071.64H622.513V1056.89Z" fill="white"/>
<path d="M224.91 908.149H136.094V919.23H224.91V908.149Z" fill="white"/>
<path d="M224.91 929.605H136.094V940.686H224.91V929.605Z" fill="white"/>
<path d="M224.91 951.096H136.094V962.177H224.91V951.096Z" fill="white"/>
<path d="M224.91 972.587H136.094V983.668H224.91V972.587Z" fill="white"/>
<path d="M224.91 994.043H136.094V1005.12H224.91V994.043Z" fill="white"/>
<path d="M224.91 1015.53H136.094V1026.61H224.91V1015.53Z" fill="white"/>
<path d="M224.91 1037.02H136.094V1048.11H224.91V1037.02Z" fill="white"/>
<path d="M224.91 1058.48H136.094V1069.56H224.91V1058.48Z" fill="white"/>
<path d="M476.583 873.178H449.145V883.871H476.583V873.178Z" fill="white"/>
<path d="M476.583 893.928H449.145V904.62H476.583V893.928Z" fill="white"/>
<path d="M476.583 914.678H449.145V925.37H476.583V914.678Z" fill="white"/>
<path d="M476.583 935.392H449.145V946.085H476.583V935.392Z" fill="white"/>
<path d="M476.583 956.142H449.145V966.835H476.583V956.142Z" fill="white"/>
<path d="M476.583 976.892H449.145V987.585H476.583V976.892Z" fill="white"/>
<path d="M476.583 997.642H449.145V1008.33H476.583V997.642Z" fill="white"/>
<path d="M476.583 1018.39H449.145V1029.08H476.583V1018.39Z" fill="white"/>
<path d="M513.9 873.178H486.461V883.871H513.9V873.178Z" fill="white"/>
<path d="M513.9 893.928H486.461V904.62H513.9V893.928Z" fill="white"/>
<path d="M513.9 914.678H486.461V925.37H513.9V914.678Z" fill="white"/>
<path d="M513.9 935.392H486.461V946.085H513.9V935.392Z" fill="white"/>
<path d="M513.9 956.142H486.461V966.835H513.9V956.142Z" fill="white"/>
<path d="M513.9 976.892H486.461V987.585H513.9V976.892Z" fill="white"/>
<path d="M513.9 997.642H486.461V1008.33H513.9V997.642Z" fill="white"/>
<path d="M513.9 1018.39H486.461V1029.08H513.9V1018.39Z" fill="white"/>
<path d="M298.107 796.213H269.529V813.081H298.107V796.213Z" fill="white"/>
<path d="M340.7 796.213H312.122V813.081H340.7V796.213Z" fill="white"/>
<path d="M298.107 820.986H269.529V837.854H298.107V820.986Z" fill="white"/>
<path d="M340.7 820.986H312.122V837.854H340.7V820.986Z" fill="white"/>
<path d="M298.107 845.758H269.529V862.627H298.107V845.758Z" fill="white"/>
<path d="M340.7 845.758H312.122V862.627H340.7V845.758Z" fill="white"/>
<path d="M298.107 870.531H269.529V887.399H298.107V870.531Z" fill="white"/>
<path d="M340.7 870.531H312.122V887.399H340.7V870.531Z" fill="white"/>
<path d="M298.107 895.304H269.529V912.172H298.107V895.304Z" fill="white"/>
<path d="M340.7 895.304H312.122V912.172H340.7V895.304Z" fill="white"/>
<path d="M298.107 920.042H269.529V936.91H298.107V920.042Z" fill="white"/>
<path d="M340.7 920.042H312.122V936.91H340.7V920.042Z" fill="white"/>
<path d="M298.107 944.815H269.529V961.683H298.107V944.815Z" fill="white"/>
<path d="M340.7 944.815H312.122V961.683H340.7V944.815Z" fill="white"/>
<path d="M298.107 969.587H269.529V986.456H298.107V969.587Z" fill="white"/>
<path d="M340.7 969.587H312.122V986.456H340.7V969.587Z" fill="white"/>
<path d="M393.508 845.758H364.93V862.627H393.508V845.758Z" fill="white"/>
<path d="M393.508 870.531H364.93V887.399H393.508V870.531Z" fill="white"/>
<path d="M393.508 895.304H364.93V912.172H393.508V895.304Z" fill="white"/>
<path d="M393.508 920.042H364.93V936.91H393.508V920.042Z" fill="white"/>
<path d="M393.508 944.815H364.93V961.683H393.508V944.815Z" fill="white"/>
<path d="M393.508 969.587H364.93V986.456H393.508V969.587Z" fill="white"/>
<path d="M298.107 994.043H269.529V1010.91H298.107V994.043Z" fill="white"/>
<path d="M340.7 994.043H312.122V1010.91H340.7V994.043Z" fill="white"/>
<path d="M393.508 994.043H364.93V1010.91H393.508V994.043Z" fill="white"/>
<path d="M298.107 1018.53H269.529V1035.4H298.107V1018.53Z" fill="white"/>
<path d="M340.7 1018.53H312.122V1035.4H340.7V1018.53Z" fill="white"/>
<path d="M393.508 1018.53H364.93V1035.4H393.508V1018.53Z" fill="white"/>
<path d="M298.107 1042.99H269.529V1059.86H298.107V1042.99Z" fill="white"/>
<path d="M340.7 1042.99H312.122V1059.86H340.7V1042.99Z" fill="white"/>
<path d="M393.508 1042.99H364.93V1059.86H393.508V1042.99Z" fill="white"/>
<path d="M298.107 1067.48H269.529V1084.35H298.107V1067.48Z" fill="white"/>
<path d="M340.7 1067.48H312.122V1084.35H340.7V1067.48Z" fill="white"/>
<path d="M393.508 1067.48H364.93V1084.35H393.508V1067.48Z" fill="white"/>
<path d="M298.107 1091.93H269.529V1108.8H298.107V1091.93Z" fill="white"/>
<path d="M340.7 1091.93H312.122V1108.8H340.7V1091.93Z" fill="white"/>
<path d="M393.508 1091.93H364.93V1108.8H393.508V1091.93Z" fill="white"/>
<path d="M651.556 820.28H636.148V835.031H651.556V820.28Z" fill="white"/>
<path d="M678.319 820.28H662.911V835.031H678.319V820.28Z" fill="white"/>
<path d="M651.556 842.512H636.148V857.263H651.556V842.512Z" fill="white"/>
<path d="M678.319 842.512H662.911V857.263H678.319V842.512Z" fill="white"/>
<path d="M651.556 864.744H636.148V879.495H651.556V864.744Z" fill="white"/>
<path d="M678.319 864.744H662.911V879.495H678.319V864.744Z" fill="white"/>
<path d="M651.556 886.941H636.148V901.692H651.556V886.941Z" fill="white"/>
<path d="M678.319 886.941H662.911V901.692H678.319V886.941Z" fill="white"/>
<path d="M651.556 909.702H636.148V924.453H651.556V909.702Z" fill="white"/>
<path d="M678.319 909.702H662.911V924.453H678.319V909.702Z" fill="white"/>
<path d="M651.556 932.499H636.148V947.25H651.556V932.499Z" fill="white"/>
<path d="M678.319 932.499H662.911V947.25H678.319V932.499Z" fill="white"/>
<path d="M651.556 955.26H636.148V970.011H651.556V955.26Z" fill="white"/>
<path d="M678.319 955.26H662.911V970.011H678.319V955.26Z" fill="white"/>
<path d="M651.556 978.022H636.148V992.772H651.556V978.022Z" fill="white"/>
<path d="M678.319 978.022H662.911V992.772H678.319V978.022Z" fill="white"/>
<path d="M651.556 1001.03H636.148V1015.78H651.556V1001.03Z" fill="white"/>
<path d="M678.319 1001.03H662.911V1015.78H678.319V1001.03Z" fill="white"/>
<path d="M651.556 1024.04H636.148V1038.79H651.556V1024.04Z" fill="white"/>
<path d="M678.319 1024.04H662.911V1038.79H678.319V1024.04Z" fill="white"/>
<path d="M651.556 1047.05H636.148V1061.8H651.556V1047.05Z" fill="white"/>
<path d="M678.319 1047.05H662.911V1061.8H678.319V1047.05Z" fill="white"/>
<path d="M651.556 1070.06H636.148V1084.81H651.556V1070.06Z" fill="white"/>
<path d="M678.319 1070.06H662.911V1084.81H678.319V1070.06Z" fill="white"/>
<path d="M708.754 820.28H693.347V835.031H708.754V820.28Z" fill="white"/>
<path d="M735.518 820.28H720.11V835.031H735.518V820.28Z" fill="white"/>
<path d="M708.754 842.512H693.347V857.263H708.754V842.512Z" fill="white"/>
<path d="M735.518 842.512H720.11V857.263H735.518V842.512Z" fill="white"/>
<path d="M708.754 864.744H693.347V879.495H708.754V864.744Z" fill="white"/>
<path d="M735.518 864.744H720.11V879.495H735.518V864.744Z" fill="white"/>
<path d="M708.754 886.941H693.347V901.692H708.754V886.941Z" fill="white"/>
<path d="M735.518 886.941H720.11V901.692H735.518V886.941Z" fill="white"/>
<path d="M708.754 909.702H693.347V924.453H708.754V909.702Z" fill="white"/>
<path d="M735.518 909.702H720.11V924.453H735.518V909.702Z" fill="white"/>
<path d="M708.754 932.499H693.347V947.25H708.754V932.499Z" fill="white"/>
<path d="M735.518 932.499H720.11V947.25H735.518V932.499Z" fill="white"/>
<path d="M708.754 955.26H693.347V970.011H708.754V955.26Z" fill="white"/>
<path d="M735.518 955.26H720.11V970.011H735.518V955.26Z" fill="white"/>
<path d="M708.754 978.022H693.347V992.772H708.754V978.022Z" fill="white"/>
<path d="M735.518 978.022H720.11V992.772H735.518V978.022Z" fill="white"/>
<path d="M708.754 1001.03H693.347V1015.78H708.754V1001.03Z" fill="white"/>
<path d="M735.518 1001.03H720.11V1015.78H735.518V1001.03Z" fill="white"/>
<path d="M708.754 1024.04H693.347V1038.79H708.754V1024.04Z" fill="white"/>
<path d="M735.518 1024.04H720.11V1038.79H735.518V1024.04Z" fill="white"/>
<path d="M708.754 1047.05H693.347V1061.8H708.754V1047.05Z" fill="white"/>
<path d="M735.518 1047.05H720.11V1061.8H735.518V1047.05Z" fill="white"/>
<path d="M708.754 1070.06H693.347V1084.81H708.754V1070.06Z" fill="white"/>
<path d="M735.518 1070.06H720.11V1084.81H735.518V1070.06Z" fill="white"/>
<path d="M51.2887 164.223C73.4504 164.223 446.317 166.27 469.745 165.634C471.433 165.634 472.32 163.517 470.631 162.847C455.899 156.706 439.141 157.941 423.775 153.636C414.742 151.06 409.212 146.155 402.922 140.473C397.729 135.527 391.013 131.865 383.504 129.887C376.647 128.167 369.372 127.973 362.398 129.322C354.842 130.84 348.256 134.474 341.038 136.733C323.14 142.414 305.748 137.015 292.957 125.934C282.404 116.83 271.851 108.29 257.667 103.279C251.812 101.076 245.475 99.9075 239.053 99.8467C232.632 99.786 226.265 100.834 220.351 102.926C206.674 108.113 197.261 118.524 184.428 124.77C169.189 132.216 150.996 130.451 134.153 132.71C117.31 134.968 104.604 146.825 89.7024 153.601C84.8937 156.185 79.3334 157.625 73.6193 157.765C70.3267 157.765 67.0763 156.953 63.8259 156.636C58.7181 156.106 53.9059 156.212 50.4866 159.741C49.6846 160.553 49.8534 164.223 51.2887 164.223Z" fill="#EBEBEB"/>
<path d="M1358.75 414.598C1380.91 414.598 1753.78 416.645 1777.2 416.01C1778.89 416.01 1779.78 413.892 1778.09 413.222C1763.36 407.081 1746.6 408.317 1731.23 404.011C1722.2 401.471 1716.67 396.53 1710.38 390.849C1705.18 385.913 1698.46 382.253 1690.96 380.262C1684.1 378.552 1676.83 378.37 1669.86 379.733C1662.3 381.215 1655.72 384.849 1648.5 387.143C1630.6 392.789 1613.21 387.426 1600.42 376.345C1589.86 367.205 1579.31 358.7 1565.13 353.654C1559.28 351.44 1552.94 350.259 1546.52 350.186C1540.1 350.114 1533.73 351.15 1527.81 353.23C1514.13 358.418 1504.72 368.828 1491.89 375.074C1476.65 382.52 1458.46 380.756 1441.61 383.014C1424.77 385.273 1412.06 397.13 1397.16 403.905C1392.36 406.505 1386.8 407.945 1381.08 408.07C1377.79 408.07 1374.54 407.258 1371.29 406.94C1366.18 406.411 1361.37 406.517 1357.95 410.081C1357.14 410.928 1357.31 414.598 1358.75 414.598Z" fill="#EBEBEB"/>
<path d="M307.31 384.32C329.472 384.32 702.338 386.367 725.766 385.767C727.455 385.767 728.341 383.65 726.695 382.944C711.92 376.839 695.162 378.074 679.796 373.733C670.763 371.193 665.233 366.252 658.943 360.606C653.759 355.667 647.059 352.007 639.567 350.019C632.713 348.288 625.434 348.094 618.461 349.455C610.905 350.972 604.362 354.572 597.144 356.865C579.203 362.512 561.811 357.148 549.021 346.067C538.468 336.927 527.914 328.422 513.773 323.411C507.915 321.198 501.574 320.019 495.147 319.946C488.719 319.873 482.342 320.909 476.415 322.988C462.738 328.14 453.366 338.55 440.492 344.832C425.295 352.278 407.059 350.513 390.258 352.772C373.457 355.03 360.709 366.887 345.766 373.663C340.948 376.231 335.393 377.669 329.683 377.827C326.396 377.58 323.128 377.191 319.889 376.662C317.534 376.126 315.049 376.135 312.699 376.688C310.35 377.241 308.224 378.318 306.55 379.803C305.706 380.685 305.875 384.32 307.31 384.32Z" fill="#EBEBEB"/>
<path d="M657.001 291.863C657.423 292.922 1244.65 291.863 1237.26 291.863C1233.88 291.863 1242.37 287.628 1239.07 286.287C1219.95 278.347 1199.06 278.136 1178.25 276.512C1165.95 276.131 1153.85 273.733 1142.66 269.455C1131.6 264.62 1124.72 256.186 1116.87 248.281C1104.75 236.305 1089.18 227.104 1071.64 221.548C1054.09 215.991 1035.14 214.261 1016.57 216.521C974.822 221.991 941.896 248.599 900.105 253.469C874.777 256.433 851.18 248.281 826.655 245.423C807.659 243.259 788.333 246.214 771.482 253.857C758.228 259.362 746.155 263.985 731.043 264.832C719.518 265.502 707.994 264.408 696.47 264.302C677.605 264.613 659.521 270.66 645.604 281.312C643.831 282.688 637.921 291.863 657.001 291.863Z" fill="#EBEBEB"/>
<path d="M1064.82 655.904C1065.28 656.927 1652.51 655.904 1645.08 655.904C1641.7 655.904 1650.23 651.669 1646.89 650.293C1627.81 642.388 1606.88 642.176 1586.06 640.553C1573.78 640.172 1561.7 637.774 1550.52 633.495C1539.46 628.626 1532.54 620.227 1524.69 612.322C1512.59 600.335 1497.03 591.127 1479.49 585.569C1461.94 580.012 1442.99 578.288 1424.43 580.562C1382.64 586.032 1349.76 612.604 1307.92 617.509C1282.81 620.438 1259.04 612.322 1234.47 609.464C1215.49 607.263 1196.16 610.219 1179.34 617.898C1166.09 623.367 1154.02 627.99 1138.86 628.872C1127.38 629.543 1115.81 628.449 1104.29 628.343C1085.5 628.68 1067.5 634.712 1053.63 645.317C1051.57 646.729 1045.66 655.904 1064.82 655.904Z" fill="#EBEBEB"/>
<path d="M1825.54 1180.13H3.46143V1210.45H1825.54V1180.13Z" fill="#A6A6A6"/>
<path d="M97.2164 1180.24C100.108 1190.2 100.108 1200.59 97.2164 1210.55C94.3034 1200.59 94.3034 1190.2 97.2164 1180.24V1180.24Z" fill="#717171"/>
<path d="M206.168 1180.24C209.081 1190.2 209.081 1200.59 206.168 1210.55C203.276 1200.59 203.276 1190.2 206.168 1180.24V1180.24Z" fill="#717171"/>
<path d="M315.077 1180.24C317.968 1190.2 317.968 1200.59 315.077 1210.55C312.164 1200.59 312.164 1190.2 315.077 1180.24Z" fill="#717171"/>
<path d="M424.113 1180.24C427.026 1190.2 427.026 1200.59 424.113 1210.55C421.221 1200.59 421.221 1190.2 424.113 1180.24V1180.24Z" fill="#717171"/>
<path d="M533.106 1180.24C535.998 1190.2 535.998 1200.59 533.106 1210.55C530.193 1200.59 530.193 1190.2 533.106 1180.24Z" fill="#717171"/>
<path d="M642.058 1180.24C644.971 1190.2 644.971 1200.59 642.058 1210.55C639.167 1200.59 639.167 1190.2 642.058 1180.24V1180.24Z" fill="#717171"/>
<path d="M751.051 1180.24C753.943 1190.2 753.943 1200.59 751.051 1210.55C748.138 1200.59 748.138 1190.2 751.051 1180.24Z" fill="#717171"/>
<path d="M860.003 1180.24C862.916 1190.2 862.916 1200.59 860.003 1210.55C857.112 1200.59 857.112 1190.2 860.003 1180.24V1180.24Z" fill="#717171"/>
<path d="M968.997 1180.24C971.889 1190.2 971.889 1200.59 968.997 1210.55C966.084 1200.59 966.084 1190.2 968.997 1180.24Z" fill="#717171"/>
<path d="M1077.95 1180.24C1080.86 1190.2 1080.86 1200.59 1077.95 1210.55C1075.06 1200.59 1075.06 1190.2 1077.95 1180.24Z" fill="#717171"/>
<path d="M1186.94 1180.24C1189.83 1190.2 1189.83 1200.59 1186.94 1210.55C1184.03 1200.59 1184.03 1190.2 1186.94 1180.24Z" fill="#717171"/>
<path d="M1295.89 1180.24C1298.81 1190.2 1298.81 1200.59 1295.89 1210.55C1293 1200.59 1293 1190.2 1295.89 1180.24Z" fill="#717171"/>
<path d="M1404.89 1180.24C1407.78 1190.2 1407.78 1200.59 1404.89 1210.55C1401.97 1200.59 1401.97 1190.2 1404.89 1180.24Z" fill="#717171"/>
<path d="M1513.92 1180.24C1516.84 1190.2 1516.84 1200.59 1513.92 1210.55C1511.03 1200.59 1511.03 1190.2 1513.92 1180.24V1180.24Z" fill="#717171"/>
<path d="M1622.83 1180.24C1625.72 1190.2 1625.72 1200.59 1622.83 1210.55C1619.92 1200.59 1619.92 1190.2 1622.83 1180.24V1180.24Z" fill="#717171"/>
<path d="M1731.78 1180.24C1734.7 1190.2 1734.7 1200.59 1731.78 1210.55C1728.89 1200.59 1728.89 1190.2 1731.78 1180.24V1180.24Z" fill="#717171"/>
<path d="M0 1210.45C585.873 1208.29 1243.13 1208.26 1829 1210.45C1243.13 1212.63 585.873 1212.6 0 1210.45V1210.45Z" fill="#717171"/>
<path d="M300.724 1293.16C693.937 1290.98 1135.06 1290.98 1528.28 1293.16C1135.06 1295.32 693.937 1295.32 300.724 1293.16V1293.16Z" fill="#717171"/>
<path d="M34.7834 1334.03C247.747 1331.73 486.672 1331.7 699.679 1334.03C486.672 1336.36 247.747 1336.32 34.7834 1334.03V1334.03Z" fill="#717171"/>
<path d="M877.479 1512.27C973.767 1509.91 1070.69 1509.91 1167.02 1512.27C1070.69 1514.64 973.767 1514.64 877.479 1512.27Z" fill="#717171"/>
<path d="M1452.29 1257.63C1548.58 1255.26 1645.5 1255.26 1741.83 1257.63C1645.5 1259.99 1548.58 1259.99 1452.29 1257.63Z" fill="#717171"/>
<path d="M1044.47 1488.03C1257.44 1485.74 1496.15 1485.7 1709.37 1488.03C1496.36 1490.32 1257.44 1490.32 1044.47 1488.03Z" fill="#717171"/>
<path d="M454.084 1180.49H213.471C213.471 1180.49 214.019 1150.53 237.659 1142.59C244.078 1140.26 251.23 1139.73 258.036 1141.09C264.842 1142.46 270.935 1145.63 275.397 1150.14C275.397 1150.14 285.021 1095.12 329.092 1095.12C373.162 1095.12 394.268 1142.59 394.268 1142.59C394.268 1142.59 404.146 1128.26 428.587 1130.91C453.029 1133.55 454.084 1180.49 454.084 1180.49Z" fill="#455A64"/>
<path d="M1794.22 1180.49C1794.22 1180.49 1786.83 1151.69 1772.1 1147.28C1757.36 1142.87 1748.42 1155.75 1748.42 1155.75C1748.42 1155.75 1744.95 1128.26 1724.06 1120.04C1703.16 1111.81 1687.5 1128.65 1687.5 1128.65C1687.5 1128.65 1671.46 1093.78 1642.84 1093.78C1614.22 1093.78 1599.78 1144.95 1599.78 1144.95C1599.78 1144.95 1582.9 1129.74 1565.55 1138.32C1548.2 1146.89 1548.24 1180.66 1548.24 1180.66L1794.22 1180.49Z" fill="#37474F"/>
<path d="M256.612 1180.49H34.7834C34.7834 1180.49 42.0863 1154.34 56.8186 1152.47C71.5509 1150.6 78.3471 1162.74 78.3471 1162.74C78.3471 1162.74 77.6717 1126.28 105.152 1120.07C132.633 1113.86 155.808 1146.08 155.808 1146.08C155.808 1146.08 173.031 1127.69 196.501 1128.89C219.971 1130.09 226.05 1160.41 226.05 1160.41C226.05 1160.41 247.199 1149.89 256.612 1180.49Z" fill="#37474F"/>
<path d="M1564.16 1180.49H1427.85C1427.85 1180.49 1428.15 1163.51 1441.57 1159C1445.21 1157.68 1449.26 1157.39 1453.11 1158.17C1456.96 1158.94 1460.41 1160.74 1462.93 1163.3C1462.93 1163.3 1468.38 1132.1 1493.37 1132.1C1518.36 1132.1 1530.26 1159 1530.26 1159C1532.38 1156.43 1535.35 1154.44 1538.81 1153.27C1542.27 1152.1 1546.06 1151.79 1549.72 1152.4C1563.61 1153.91 1564.16 1180.49 1564.16 1180.49Z" fill="#455A64"/>
<path d="M1124.66 1277.21C1118.65 1277.21 963.472 1235.11 958.716 1230.35C956.908 1228.59 1018.16 1117.71 1018.16 1117.71L1115.55 1147.34L1072.63 1214.32C1072.63 1214.32 1121.99 1251.59 1126.5 1257.29C1131.01 1262.98 1130.66 1277.17 1124.66 1277.21Z" fill="#EB9481"/>
<path d="M1124.66 1277.19C1118.65 1277.19 963.472 1235.11 958.716 1230.37C957.849 1229.5 972.041 1202.46 986.358 1175.91L1079.81 1202.83L1072.63 1214.32C1072.63 1214.32 1121.99 1251.59 1126.47 1257.29C1130.96 1262.98 1130.66 1277.17 1124.66 1277.19Z" fill="#EBEBEB"/>
<path d="M1125.46 1277.31C1119.46 1277.31 962.704 1235.9 958.022 1231.16C956.214 1229.38 967.583 1208.98 978.233 1187.53L1074.14 1214.07C1074.14 1214.07 1122.78 1251.74 1127.27 1257.37C1131.75 1263 1131.33 1277.27 1125.46 1277.31Z" fill="#FFC727"/>
<path d="M1125.13 1271.53C1099.45 1263.98 994.952 1235.53 968.871 1229.69C968.673 1229.69 968.623 1229.69 968.871 1229.81C994.135 1237.78 1098.91 1265.53 1125.06 1271.89C1125.46 1272.03 1125.68 1271.7 1125.13 1271.53Z" fill="#263238"/>
<path d="M1119.02 1250.02C1116.16 1249.18 1113.13 1248.84 1110.11 1249.03C1107.09 1249.22 1104.15 1249.93 1101.48 1251.12C1096.64 1253.21 1092.96 1256.79 1091.2 1261.1C1091.2 1261.22 1091.43 1261.3 1091.5 1261.1C1094.05 1257.05 1098.1 1253.8 1103.04 1251.83C1107.98 1249.87 1113.55 1249.3 1118.92 1250.21C1118.96 1250.19 1118.99 1250.16 1119.01 1250.13C1119.03 1250.09 1119.03 1250.06 1119.02 1250.02V1250.02Z" fill="#263238"/>
<path d="M1081.32 1218.46C1070.99 1215.54 1057.79 1215.34 1048.6 1220.68C1048.25 1220.89 1048.6 1221.3 1048.97 1221.26C1059.6 1219.74 1070.4 1219.18 1081.17 1219.58C1081.32 1219.56 1081.47 1219.51 1081.57 1219.41C1081.68 1219.32 1081.75 1219.2 1081.77 1219.07C1081.78 1218.94 1081.75 1218.81 1081.67 1218.7C1081.59 1218.59 1081.46 1218.51 1081.32 1218.46V1218.46Z" fill="#263238"/>
<path d="M1088.3 1223.23C1078 1220.31 1064.77 1220.1 1055.59 1225.44C1055.24 1225.65 1055.59 1226.06 1055.96 1226.02C1066.59 1224.5 1077.38 1223.93 1088.16 1224.34C1088.31 1224.33 1088.45 1224.27 1088.56 1224.18C1088.67 1224.08 1088.74 1223.96 1088.75 1223.83C1088.77 1223.71 1088.73 1223.58 1088.65 1223.47C1088.57 1223.36 1088.45 1223.27 1088.3 1223.23V1223.23Z" fill="#263238"/>
<path d="M1095.31 1228.01C1084.99 1225.07 1071.78 1224.88 1062.57 1230.2C1062.22 1230.41 1062.57 1230.85 1062.94 1230.78C1073.57 1229.28 1084.37 1228.72 1095.14 1229.13C1095.3 1229.11 1095.44 1229.06 1095.55 1228.97C1095.66 1228.87 1095.73 1228.75 1095.75 1228.63C1095.77 1228.5 1095.74 1228.37 1095.66 1228.25C1095.58 1228.14 1095.46 1228.06 1095.31 1228.01Z" fill="#263238"/>
<path d="M1102.3 1232.79C1091.97 1229.85 1078.77 1229.65 1069.58 1234.99C1069.21 1235.19 1069.58 1235.63 1069.93 1235.57C1080.56 1234.05 1091.35 1233.49 1102.13 1233.91C1102.28 1233.9 1102.42 1233.84 1102.54 1233.75C1102.65 1233.66 1102.72 1233.54 1102.74 1233.41C1102.76 1233.28 1102.73 1233.15 1102.65 1233.04C1102.57 1232.92 1102.44 1232.84 1102.3 1232.79V1232.79Z" fill="#263238"/>
<path d="M983.46 1210.91C971.818 1207.78 965.973 1222.9 977.639 1226.04C989.305 1229.19 995.126 1214.03 983.46 1210.91Z" fill="#263238"/>
<path d="M1101.51 1198.38C1097.67 1193.31 1089.67 1195.07 1084.99 1197.97C1078.68 1202 1073.45 1207.08 1069.63 1212.89C1069.07 1213.68 1068.56 1214.49 1068.09 1215.32C1067.92 1215.69 1067.7 1216.04 1067.5 1216.37C1067.3 1216.7 1067.5 1216.37 1067.5 1216.37L1067.37 1216.66C1067.23 1216.97 1067.08 1217.24 1066.93 1217.53C1066.91 1217.57 1066.91 1217.61 1066.91 1217.64C1066.92 1217.68 1066.94 1217.72 1066.96 1217.75C1066.99 1217.78 1067.03 1217.81 1067.07 1217.82C1067.11 1217.84 1067.16 1217.85 1067.2 1217.84C1067.18 1218.07 1067.23 1218.29 1067.36 1218.49C1067.49 1218.69 1067.68 1218.86 1067.92 1218.96C1068.04 1219.03 1068.18 1219.07 1068.33 1219.09C1068.47 1219.1 1068.62 1219.1 1068.76 1219.06C1071.24 1218.44 1073.84 1217.86 1076.44 1217.26C1076.88 1217.19 1077.32 1217.09 1077.75 1216.97C1084.12 1215.75 1090.21 1213.65 1095.76 1210.76C1100.39 1208.11 1105.12 1203.16 1101.51 1198.38ZM1081.69 1213.33C1079.56 1213.91 1077.41 1214.45 1075.3 1215.01L1069.88 1216.48L1069.16 1216.7L1068.46 1216.91L1068.86 1216.43C1069.78 1215.42 1070.69 1214.36 1071.56 1213.45C1073.94 1210.74 1076.5 1208.14 1079.24 1205.67C1081.13 1203.96 1083.15 1202.34 1085.28 1200.84C1088.65 1198.61 1101.65 1194.13 1099 1203.85C1097.54 1209.15 1086.89 1211.9 1081.64 1213.33H1081.69Z" fill="#263238"/>
<path d="M1069.38 1217.68C1069.42 1217.66 1069.46 1217.64 1069.49 1217.62C1069.53 1217.59 1069.55 1217.56 1069.57 1217.52C1069.58 1217.49 1069.59 1217.45 1069.59 1217.41C1069.59 1217.38 1069.57 1217.34 1069.55 1217.3C1069.42 1217.1 1069.27 1216.9 1069.11 1216.7C1069.08 1216.6 1069.02 1216.51 1068.94 1216.43C1068.94 1216.43 1068.94 1216.43 1068.94 1216.43C1068.73 1216.05 1068.47 1215.69 1068.17 1215.36C1067.2 1214.06 1066.12 1212.81 1064.95 1211.63C1060.47 1206.87 1054.95 1202.86 1048.67 1199.83C1043.57 1197.45 1035.37 1196.6 1032.38 1202.02C1032.26 1202.22 1032.17 1202.42 1032.1 1202.62C1029.95 1207.51 1035.23 1211.76 1040.03 1213.78C1045.19 1215.76 1050.69 1217.06 1056.33 1217.64C1060.22 1218.11 1064.18 1218.48 1067.99 1218.98C1068.96 1219.17 1069.51 1218.34 1069.38 1217.68ZM1054.35 1214.72C1048.9 1213.89 1037.88 1212.31 1035.6 1207.16C1034.98 1205.99 1034.74 1204.7 1034.9 1203.43C1035.77 1198.81 1045.65 1201.17 1048.72 1202.73C1051.1 1203.98 1053.36 1205.36 1055.51 1206.87C1057.15 1207.97 1058.68 1209.15 1060.22 1210.37C1062.69 1212.34 1065.05 1214.41 1067.5 1216.41C1067.65 1216.56 1067.82 1216.66 1067.97 1216.79H1067.35C1066.84 1216.67 1066.32 1216.57 1065.79 1216.5C1062 1215.79 1058.16 1215.32 1054.35 1214.72Z" fill="#263238"/>
<path d="M1098.58 1174.24L1002.88 1145.25C1002.88 1145.25 1096.38 970.222 1091.65 963.638C1085.48 955.024 968.103 911.562 933.799 880.338C888.671 839.258 913.315 788.943 913.315 788.943H1003.55C1003.55 788.943 1015.58 816.109 1018.01 819.401C1027.92 832.653 1202.64 895.619 1211.95 930.757C1226.59 986.041 1098.58 1174.24 1098.58 1174.24Z" fill="#EB9481"/>
<path d="M1027.65 942.766L1115.8 865.803C1115.8 865.803 1025 825.55 1020.27 818.593C1015.53 811.636 1003.55 789.005 1003.55 789.005H913.315C913.315 789.005 893.5 826.275 912.77 861.579C932.04 896.882 1027.65 942.766 1027.65 942.766Z" fill="#263238"/>
<path d="M1040.2 910.983C1045.32 913.426 1050.47 915.862 1055.66 918.292L1048.68 924.441C1044.24 922.371 1039.83 920.155 1035.4 918.002C1016.03 908.374 996.612 898.704 977.986 887.875C968.504 882.526 959.459 876.653 950.914 870.296C948.833 868.619 946.753 866.921 944.796 865.057C943.805 864.125 942.889 863.111 942.022 862.138C941.133 861.182 940.306 860.186 939.545 859.156C936.293 855.13 933.546 850.835 931.347 846.339C927.11 837.405 924.505 827.989 923.619 818.407C922.67 808.961 923.128 799.454 924.981 790.102C924.557 794.787 924.491 799.49 924.783 804.182C925.045 808.856 925.607 813.514 926.468 818.138C928.066 827.301 931.271 836.217 935.979 844.6C938.301 848.72 941.106 852.639 944.35 856.299C945.143 857.23 946.01 858.121 946.827 858.97C947.645 859.819 948.536 860.688 949.477 861.475C951.31 863.069 953.366 864.602 955.422 866.072C964.028 871.922 973.053 877.329 982.444 882.264C1001.22 892.347 1020.61 901.789 1040.2 910.983Z" fill="#455A64"/>
<path d="M1114.48 957.302C1114.5 957.15 1114.5 956.998 1114.48 956.846C1114.48 956.66 1114.48 956.66 1114.48 956.535C1114.48 956.604 1114.48 956.674 1114.48 956.743L1114.63 957.177L1114.76 957.384L1114.93 957.654L1114.48 957.302Z" fill="#455A64"/>
<path d="M722.078 1311.39C719.601 1311.39 677.619 1313.11 674.003 1310.4C637.494 1283.07 586.174 1211.26 585.134 1207.63C584.44 1205.38 623.029 1178.81 623.227 1178.65C627.215 1174.98 702.784 1118.17 702.784 1118.17L778.03 1181.59L699.762 1239.17L698.499 1240.21C700.674 1253.43 704.246 1266.46 709.174 1279.15C710.239 1281.74 723.787 1292.86 724.704 1294.99C727.701 1301.99 725.372 1311.39 722.078 1311.39Z" fill="#EB9481"/>
<path d="M722.103 1311.39C719.626 1311.39 677.52 1313.11 674.003 1310.4C637.494 1283.07 586.174 1211.26 585.109 1207.63C584.415 1205.38 623.029 1178.81 623.227 1178.65C624.218 1177.76 629.543 1173.62 637.048 1167.88L710.933 1230.89L699.762 1239.17L698.474 1240.21C700.678 1253.42 704.258 1266.46 709.174 1279.15C710.239 1281.74 723.787 1292.86 724.679 1295.01C727.701 1301.97 725.373 1311.39 722.103 1311.39Z" fill="#EBEBEB"/>
<path d="M723.713 1311.93C722.351 1312.7 676.034 1313.01 672.987 1310.69C643.76 1288.62 583.177 1211.3 582.558 1206.83C582.186 1204.51 602.892 1188.85 625.778 1175.77L699.093 1240.31C699.093 1240.31 703.626 1265.63 709.496 1279.19C710.833 1282.28 724.159 1292.45 725.348 1294.7C729.162 1301.54 725.67 1310.83 723.713 1311.93Z" fill="#FFC727"/>
<path d="M720.221 1291.68C717.131 1290 713.672 1288.85 710.045 1288.29C706.418 1287.74 702.695 1287.79 699.093 1288.45C695.998 1288.99 693.064 1290.04 690.461 1291.54C687.858 1293.04 685.64 1294.96 683.935 1297.19C683.935 1297.33 684.158 1297.5 684.282 1297.37C692.331 1289.4 708.158 1286.86 720.022 1291.95C720.043 1291.97 720.068 1291.98 720.097 1291.99C720.126 1292 720.157 1292.01 720.188 1292.01C720.219 1292 720.249 1292 720.276 1291.98C720.302 1291.97 720.325 1291.95 720.341 1291.93C720.357 1291.91 720.367 1291.88 720.37 1291.85C720.372 1291.83 720.367 1291.8 720.356 1291.78C720.344 1291.75 720.326 1291.73 720.302 1291.72C720.279 1291.7 720.251 1291.69 720.221 1291.68V1291.68Z" fill="#263238"/>
<path d="M622.658 1200.33C614.905 1192.42 600.193 1202.4 607.97 1210.41C615.747 1218.42 630.336 1208.26 622.658 1200.33Z" fill="#263238"/>
<path d="M731.812 1241.63C732.109 1235.63 724.382 1233.35 718.511 1233.35C710.582 1233.66 702.816 1235.34 695.7 1238.28C694.684 1238.67 693.718 1239.11 692.777 1239.54C692.381 1239.77 691.96 1239.96 691.588 1240.14L691.291 1240.33L690.325 1240.83C690.289 1240.85 690.26 1240.88 690.24 1240.91C690.22 1240.95 690.209 1240.99 690.209 1241.02C690.209 1241.06 690.22 1241.1 690.24 1241.13C690.26 1241.17 690.289 1241.2 690.325 1241.22C690.146 1241.39 690.034 1241.6 690.003 1241.83C689.972 1242.05 690.024 1242.28 690.152 1242.48C690.208 1242.59 690.293 1242.69 690.399 1242.78C690.506 1242.86 690.633 1242.92 690.771 1242.96C693.248 1243.64 695.724 1244.39 698.201 1245.13C698.621 1245.29 699.051 1245.42 699.489 1245.53C705.554 1247.57 711.982 1248.76 718.511 1249.05C724.208 1249.17 731.639 1247.29 731.812 1241.63ZM705.285 1244.43L698.87 1242.77C697.037 1242.28 695.254 1241.84 693.421 1241.39L692.678 1241.22L691.96 1241.07L692.628 1240.87C694.065 1240.47 695.477 1240.1 696.889 1239.69C700.689 1238.6 704.559 1237.7 708.48 1236.98C711.195 1236.45 713.952 1236.09 716.728 1235.9C721.013 1235.65 734.76 1238.18 725.967 1244.88C721.211 1248.59 710.561 1245.75 705.285 1244.43V1244.43Z" fill="#263238"/>
<path d="M692.232 1242.15C692.275 1242.16 692.32 1242.17 692.365 1242.16C692.409 1242.16 692.452 1242.15 692.491 1242.13C692.529 1242.11 692.561 1242.08 692.585 1242.05C692.609 1242.02 692.624 1241.98 692.629 1241.94C692.652 1241.7 692.652 1241.46 692.629 1241.22C692.665 1241.13 692.665 1241.02 692.629 1240.93C692.689 1240.51 692.689 1240.09 692.629 1239.67C692.765 1238.14 692.765 1236.61 692.629 1235.09C692.176 1229.05 690.352 1223.14 687.254 1217.68C684.777 1213.29 678.535 1208.67 672.393 1211.69C672.177 1211.81 671.97 1211.93 671.774 1212.07C666.671 1215.05 668.108 1221.05 670.659 1225.01C673.552 1229.1 677.187 1232.78 681.433 1235.94C684.306 1238.2 687.279 1240.39 690.077 1242.63C690.237 1242.76 690.435 1242.86 690.653 1242.91C690.871 1242.96 691.101 1242.96 691.319 1242.91C691.537 1242.86 691.737 1242.77 691.897 1242.63C692.057 1242.5 692.173 1242.33 692.232 1242.15V1242.15ZM681.904 1232.56C678.015 1229.27 670.04 1222.73 671.65 1217.41C671.958 1216.15 672.639 1214.99 673.631 1214.01C677.495 1210.64 684.009 1217.28 685.471 1220.04C686.583 1222.17 687.51 1224.37 688.245 1226.62C688.839 1228.32 689.31 1230.02 689.706 1231.76C690.424 1234.55 690.944 1237.37 691.588 1240.21C691.588 1240.37 691.588 1240.56 691.712 1240.74C691.585 1240.61 691.444 1240.48 691.291 1240.37C690.92 1240.02 690.598 1239.71 690.201 1239.38C687.477 1237.1 684.579 1234.86 681.904 1232.56V1232.56Z" fill="#263238"/>
<path d="M703.403 1250.6C696.938 1243.27 686.238 1236.81 675.043 1236.81C674.597 1236.81 674.597 1237.33 675.043 1237.45C684.785 1241.27 694.01 1245.95 702.561 1251.41C702.691 1251.44 702.831 1251.45 702.963 1251.42C703.096 1251.39 703.214 1251.33 703.304 1251.24C703.395 1251.15 703.452 1251.05 703.47 1250.93C703.487 1250.82 703.464 1250.7 703.403 1250.6Z" fill="#263238"/>
<path d="M705.904 1257.81C699.415 1250.48 688.715 1244.02 677.52 1244.02C677.074 1244.02 677.099 1244.53 677.52 1244.66C687.267 1248.47 696.493 1253.15 705.037 1258.61C705.169 1258.66 705.313 1258.66 705.45 1258.64C705.587 1258.61 705.711 1258.55 705.805 1258.46C705.899 1258.37 705.959 1258.26 705.977 1258.15C705.995 1258.03 705.969 1257.91 705.904 1257.81V1257.81Z" fill="#263238"/>
<path d="M708.381 1265.11C701.892 1257.78 691.192 1251.32 679.997 1251.32C679.551 1251.32 679.575 1251.84 679.997 1251.97C689.734 1255.79 698.958 1260.47 707.514 1265.92C707.646 1265.96 707.79 1265.97 707.927 1265.95C708.064 1265.92 708.188 1265.86 708.282 1265.77C708.376 1265.68 708.436 1265.57 708.454 1265.45C708.471 1265.34 708.446 1265.22 708.381 1265.11V1265.11Z" fill="#263238"/>
<path d="M710.858 1272.3C704.369 1264.97 693.669 1258.51 682.473 1258.51C682.052 1258.51 682.052 1259.03 682.473 1259.15C692.216 1262.97 701.441 1267.65 709.991 1273.11C710.122 1273.15 710.266 1273.16 710.403 1273.13C710.541 1273.1 710.664 1273.04 710.759 1272.95C710.853 1272.87 710.913 1272.76 710.93 1272.64C710.948 1272.52 710.923 1272.4 710.858 1272.3V1272.3Z" fill="#263238"/>
<path d="M724.208 1306.63C711.477 1305.22 698.474 1305.45 685.718 1304.39L681.235 1304.04C679.634 1304.12 678.053 1303.71 676.777 1302.9C674.719 1300.98 672.808 1298.94 671.055 1296.81C667.241 1292.67 663.435 1288.53 659.637 1284.39C644.38 1267.59 629.378 1250.65 614.633 1233.56C610.447 1228.73 606.211 1223.95 602.026 1219.06C597.84 1214.18 593.258 1209.64 589.047 1204.84C588.898 1204.65 588.552 1204.84 588.7 1205.01C592.242 1209.54 595.462 1214.26 599.103 1218.73C602.744 1223.21 606.533 1227.68 610.15 1232.11C617.613 1240.89 625.151 1249.61 632.763 1258.26C640.375 1266.92 648.095 1275.53 655.922 1284.1C659.852 1288.41 663.815 1292.71 667.811 1297C669.718 1299.07 671.625 1301.14 673.582 1303.21C674.238 1304.03 675.107 1304.71 676.123 1305.21C677.139 1305.71 678.277 1306.01 679.452 1306.09C694.313 1307.27 709.174 1306.98 724.035 1307.58C724.605 1307.5 724.728 1306.69 724.208 1306.63Z" fill="#263238"/>
<path d="M999.138 789.005C999.138 789.005 1008.05 852.779 992.302 867.293C992.302 867.293 940.139 1023.64 925.055 1058.14C901.674 1111.6 752.147 1200.45 752.147 1200.45L677.222 1137.36C677.222 1137.36 813.672 1034.72 814.217 1031.08C817.387 1010.37 872.224 880.359 870.689 876.839C853.351 836.628 881.438 789.005 881.438 789.005H999.138Z" fill="#EB9481"/>
<path d="M835.666 945.396L967.707 959.89L992.327 867.335C992.327 867.335 1011.75 850.625 1009.52 788.653H881.463C881.463 788.653 851.568 834.93 861.252 871.6L835.666 945.396Z" fill="#263238"/>
<path d="M893.055 835.986C892.382 843.82 892.464 851.686 893.303 859.508C893.525 861.454 893.724 863.401 894.145 865.285L894.665 868.184L895.358 871.02C896.217 874.734 897.435 878.383 898.999 881.932L899.495 882.947L899.148 884.003C894.97 897.241 890.661 910.424 886.219 923.551C883.222 932.351 880.225 941.151 877.153 949.951L867.246 948.854L891.519 883.133C890.159 879.517 889.124 875.821 888.423 872.076L887.903 869.033L887.531 865.989C887.234 863.918 887.16 861.848 887.036 859.777C886.628 851.67 887.093 843.548 888.423 835.51C889.216 831.493 889.909 827.497 891.049 823.583C892.188 819.67 893.352 815.757 894.665 811.905C895.284 809.959 896.077 808.054 896.894 806.17L899.247 800.496C901.005 796.769 902.937 793.084 904.746 789.419C903.383 793.249 901.897 797.039 900.584 800.848C899.272 804.658 898.108 808.53 897.191 812.444C896.275 816.357 895.284 820.208 894.714 824.142C894.145 828.077 893.501 832.052 893.055 835.986Z" fill="#455A64"/>
<path d="M992.351 868.101C990.624 871.903 989.265 875.815 988.289 879.8C987.1 883.817 985.986 887.834 984.871 891.85C982.642 900.009 980.314 908.125 978.753 916.387C978.753 916.436 978.777 916.484 978.819 916.519C978.861 916.554 978.917 916.573 978.976 916.573C979.035 916.573 979.092 916.554 979.134 916.519C979.176 916.484 979.199 916.436 979.199 916.387C982.246 908.415 984.549 900.257 986.927 892.14C988.116 888.123 989.28 884.106 990.37 880.09C991.61 876.161 992.496 872.161 993.02 868.122C993.045 867.915 992.475 867.832 992.351 868.101Z" fill="#455A64"/>
<path d="M1013.73 856.112C1005.18 859.635 996.998 863.757 989.28 868.432C981.106 873.319 973.923 879.158 966.27 884.583C966.047 884.748 966.27 885.059 966.518 884.914C974.592 880.152 982.89 875.762 990.692 870.689C998.494 865.616 1005.87 860.875 1013.92 856.423C1014 856.236 1014 855.926 1013.73 856.112Z" fill="#455A64"/>
<path d="M992.772 694.213C1030.12 738.814 1072.68 774.842 1092.59 774.159C1119.39 773.268 1174.65 747.386 1201.84 731.732C1209.84 727.136 1165.78 675.827 1157.26 680.755C1146.93 686.697 1094.05 718.025 1092.86 718.398C1090.38 719.06 1029.85 682.411 1014.69 674.398C989.379 661.063 976.202 674.419 992.772 694.213Z" fill="#EB9481"/>
<path d="M1241.25 706.513C1231.74 717.404 1201.89 733.43 1192.9 734.9C1183.91 736.371 1149.8 694.876 1152.68 687.401C1155.55 679.926 1190.94 645.265 1206.82 641.662C1222.7 638.059 1251.08 695.207 1241.25 706.513Z" fill="#EB9481"/>
<path d="M1183.71 651.332C1182.99 658.454 1193.45 655.1 1193.45 655.1C1193.45 655.1 1179.8 662.948 1182.42 670.547C1185.05 678.146 1197.46 673.425 1198.38 673.114C1197.66 673.528 1185.32 681.024 1188.91 688.437C1192.51 695.849 1204.27 689.865 1205.01 689.472C1204.47 690.031 1197.58 697.754 1201.89 702.848C1209.32 711.606 1227.35 692.288 1237.68 691.605C1237.68 691.605 1241.03 706.099 1241.25 706.513C1241.25 706.513 1258.93 688.416 1257.08 676.841C1256.84 675.154 1255.92 673.586 1254.47 672.396C1253.02 671.206 1251.12 670.466 1249.1 670.298C1249.1 670.298 1255.57 664.998 1252.96 659.096C1251.6 656.073 1244.62 655.183 1244.62 655.183C1244.62 655.183 1249.57 650.752 1246.9 645.638C1244.74 641.496 1238.05 641.289 1238.05 641.289C1238.05 641.289 1240.53 635.078 1236.67 631.599C1228.96 624.352 1185.3 636.071 1183.71 651.332Z" fill="#EB9481"/>
<path d="M1236.91 641.103C1237.06 641.103 1236.91 640.896 1236.91 640.917C1220.83 641.856 1205.46 646.86 1192.85 655.266C1192.48 655.535 1192.85 656.198 1193.35 655.949C1206.94 649.27 1221.61 644.27 1236.91 641.103V641.103Z" fill="#263238"/>
<path d="M1244.82 655.059C1244.99 655.059 1244.82 654.769 1244.82 654.79C1228.87 655.825 1210.14 661.871 1197.76 672.907C1197.33 673.28 1197.41 673.984 1197.93 673.57C1206.87 666.758 1230.35 657.813 1244.82 655.059Z" fill="#263238"/>
<path d="M1204.44 690.466C1216.83 680.258 1231.94 674.419 1248.43 670.278C1248.66 670.278 1248.43 669.967 1248.43 669.988C1239.69 670.174 1229.51 673.735 1221.86 677.048C1214.68 680.029 1208.57 684.526 1204.12 690.093C1203.85 690.341 1204.2 690.693 1204.44 690.466Z" fill="#263238"/>
<path d="M1193.45 655.1C1190.99 656.805 1188.74 658.697 1186.71 660.753C1184.63 662.678 1183.21 665.029 1182.57 667.565C1182.36 668.744 1182.68 669.947 1183.46 670.94C1184.27 671.939 1185.37 672.746 1186.66 673.28C1187.99 673.724 1189.41 673.929 1190.84 673.883C1192.27 673.836 1193.67 673.539 1194.96 673.011L1201.37 670.65L1196.42 674.791C1194.16 676.592 1192.27 678.69 1190.82 681.003C1190.07 682.041 1189.6 683.199 1189.42 684.401C1189.25 685.604 1189.38 686.824 1189.81 687.981C1190.23 689.046 1191.07 689.958 1192.2 690.568C1193.32 691.178 1194.66 691.449 1196 691.335C1198.98 691.034 1201.82 690.1 1204.25 688.623L1211.13 684.709L1206.18 690.259C1204.8 691.796 1203.66 693.472 1202.78 695.249C1201.89 696.916 1201.59 698.764 1201.92 700.57C1202.12 701.376 1202.58 702.119 1203.26 702.716C1203.94 703.312 1204.8 703.738 1205.76 703.945C1207.96 704.104 1210.18 703.738 1212.15 702.889C1216.45 701.16 1220.59 699.16 1224.53 696.905C1226.59 695.828 1228.64 694.835 1230.77 693.717C1232.86 692.643 1235.18 691.939 1237.61 691.646C1235.27 692.167 1233.07 693.068 1231.14 694.296C1229.14 695.414 1227.18 696.636 1225.22 697.837C1221.36 700.382 1217.21 702.614 1212.84 704.504C1210.49 705.554 1207.82 706.014 1205.16 705.829C1203.73 705.6 1202.4 705.022 1201.36 704.167C1200.32 703.313 1199.6 702.22 1199.29 701.026C1198.78 698.801 1199.08 696.499 1200.16 694.421C1201.08 692.419 1202.32 690.526 1203.82 688.789L1205.76 690.445C1202.91 692.237 1199.56 693.372 1196.02 693.737C1194.06 693.899 1192.09 693.481 1190.45 692.557C1188.88 691.606 1187.69 690.287 1187.03 688.768C1186.49 687.306 1186.32 685.765 1186.53 684.244C1186.75 682.724 1187.35 681.26 1188.29 679.947C1189.95 677.438 1192.07 675.167 1194.59 673.218L1195.97 674.936C1194.34 675.546 1192.58 675.851 1190.79 675.83C1189.01 675.809 1187.25 675.461 1185.64 674.812C1184.09 674.081 1182.8 673.025 1181.88 671.748C1180.96 670.444 1180.64 668.905 1180.99 667.42C1181.82 664.714 1183.53 662.255 1185.94 660.318C1188.2 658.346 1190.72 656.595 1193.45 655.1V655.1Z" fill="#263238"/>
<path d="M1157.46 680.61C1157.46 680.61 1172.72 624.828 1195.9 640.503C1202.76 645.161 1224.38 671.147 1218.19 674.874C1210.24 679.699 1198.8 670.257 1192.75 663.362C1192.75 663.362 1190.75 682.949 1174.03 685.869C1170.95 686.352 1167.78 686.117 1164.86 685.189C1161.93 684.261 1159.37 682.676 1157.46 680.61V680.61Z" fill="#EB9481"/>
<path d="M1193.87 639.302C1196.82 640.864 1199.49 642.775 1201.79 644.975C1204.16 647.126 1206.34 649.409 1208.33 651.808C1212.43 656.565 1216.02 661.616 1219.06 666.902C1219.86 668.306 1220.42 669.798 1220.72 671.333C1220.9 672.218 1220.83 673.125 1220.52 673.984C1220.37 674.46 1220.12 674.909 1219.78 675.309C1219.43 675.704 1219.01 676.053 1218.54 676.344C1216.81 677.342 1214.71 677.797 1212.62 677.628C1210.71 677.435 1208.86 676.973 1207.14 676.261C1203.92 674.856 1201.02 673 1198.55 670.774C1196.11 668.646 1193.85 666.376 1191.79 663.983L1193.97 663.445C1193.65 665.667 1193.08 667.858 1192.26 669.988C1191.48 672.147 1190.42 674.229 1189.11 676.199C1187.78 678.143 1186.11 679.908 1184.16 681.438C1182.24 682.965 1180 684.173 1177.55 684.999C1179.8 683.941 1181.82 682.577 1183.54 680.962C1185.2 679.338 1186.59 677.534 1187.68 675.599C1188.79 673.686 1189.66 671.68 1190.28 669.615C1190.91 667.58 1191.31 665.5 1191.49 663.403L1191.66 660.815L1193.67 662.886C1195.74 665.139 1198 667.27 1200.43 669.263C1202.73 671.26 1205.4 672.931 1208.33 674.212C1211.16 675.35 1214.6 675.847 1216.73 674.522C1218.86 673.197 1217.72 670.381 1216.46 667.917C1215.09 665.301 1213.57 662.744 1211.9 660.256C1210.26 657.73 1208.58 655.204 1206.75 652.781C1203.32 647.756 1198.97 643.209 1193.87 639.302V639.302Z" fill="#263238"/>
<path d="M1092.94 774.138H1092.59C1072.77 774.8 1030.12 738.793 992.797 694.193C980.636 679.699 984.45 668.642 997.305 669.014L1092.94 774.138Z" fill="#263238"/>
<path d="M854.763 837.663C855.109 838.098 1027.03 824.701 1028.96 823.397C1031.66 821.534 1038.15 713.491 1015.31 677.214C1009.59 668.166 976.078 656.964 956.066 671.375C889.81 719.04 853.574 836.048 854.763 837.663Z" fill="#FFC727"/>
<path d="M1031.88 783.642C1030.1 784.408 1028.29 785.133 1026.43 785.712C1021.63 787.435 1016.58 788.606 1011.4 789.191C1006.23 789.74 1001.01 789.74 995.844 789.191C990.656 788.659 985.599 787.451 980.859 785.609C976.146 783.748 971.749 781.374 967.781 778.548C966.667 777.761 965.552 776.954 964.512 776.105C964.279 775.949 964.064 775.776 963.868 775.587C957.785 770.451 952.211 764.912 947.199 759.023C944.053 755.585 940.982 752.128 937.688 748.815C935.58 746.636 933.322 744.562 930.926 742.603L930.257 742.065C929.143 741.195 927.978 740.387 926.79 739.601C922.794 736.905 918.078 735.058 913.043 734.217L911.136 733.927L909.229 733.803H908.263H905.39C903.879 733.803 902.417 733.803 900.931 733.969L901.229 733.513C902.616 733.513 904.003 733.368 905.365 733.327H907.322H908.288H909.278L911.21 733.492C911.879 733.492 912.498 733.658 913.142 733.762C918.286 734.601 923.107 736.477 927.186 739.228C928.442 740.033 929.649 740.89 930.802 741.795L931.471 742.313C933.841 744.237 936.082 746.269 938.183 748.401C941.527 751.713 944.623 755.192 947.744 758.629C952.816 764.532 958.466 770.073 964.636 775.194C964.834 775.38 965.082 775.546 965.304 775.732C966.27 776.478 967.261 777.202 968.277 777.927C983.757 789.46 1007.29 791.883 1026.06 784.926C1028.07 784.222 1030 783.414 1031.88 782.586V783.642ZM1022.74 750.057H1021.85L1020.61 750.223C1015.47 750.953 1010.48 752.255 1005.75 754.095C996.265 757.76 988.166 763.309 979.695 768.195C975.49 770.68 971.031 772.849 966.369 774.676L964.66 775.277L963.893 775.546C959.958 776.846 955.85 777.743 951.657 778.217C946.552 778.762 941.379 778.686 936.301 777.989L934.393 777.782C933.749 777.782 933.155 777.534 932.536 777.43C931.273 777.182 930.059 776.954 928.796 776.664L925.155 775.608C924.541 775.433 923.945 775.219 923.372 774.966L921.638 774.324C912.275 770.659 904.622 764.613 895.532 760.389C893.29 759.311 890.984 758.329 888.621 757.449H888.498L887.631 757.18C887.566 757.263 887.516 757.354 887.482 757.449C887.459 757.51 887.459 757.575 887.482 757.635L888.448 757.946C890.726 758.825 892.95 759.799 895.111 760.865C904.102 765.007 911.73 771.218 921.192 774.883L922.975 775.567C923.556 775.807 924.151 776.021 924.759 776.208L928.449 777.285C929.687 777.575 930.926 777.803 932.214 778.072C932.883 778.175 933.477 778.341 934.146 778.403L936.078 778.631C945.641 779.997 955.47 779.108 964.462 776.064L965.255 775.815L966.642 775.318C971.351 773.467 975.859 771.277 980.116 768.775C988.661 763.909 996.711 758.422 1006.1 754.819C1011.28 752.731 1016.82 751.333 1022.52 750.678H1023.41C1025.97 750.43 1028.54 750.326 1031.11 750.368V749.664C1028.32 749.592 1025.52 749.696 1022.74 749.974V750.057ZM1029.5 756.911C1027.52 754.84 1025.54 752.769 1023.46 750.699C1023.24 750.461 1023 750.233 1022.74 750.016C1018.38 745.626 1013.51 741.604 1008.2 738.006C1004.14 735.278 999.661 733.022 994.878 731.298C990.074 729.577 984.975 728.5 979.769 728.109C974.58 727.681 969.347 727.792 964.19 728.44C959.051 729.179 954.053 730.488 949.329 732.333C942.788 735.023 936.582 738.248 930.802 741.961L930.257 742.251C927.929 743.659 925.601 745.067 923.272 746.392C919.07 748.88 914.611 751.049 909.947 752.873C905.235 754.677 900.225 755.877 895.086 756.434C892.621 756.686 890.139 756.803 887.655 756.786L887.482 757.159C887.418 757.243 887.368 757.333 887.333 757.428H888.349C890.634 757.425 892.917 757.308 895.185 757.076C900.321 756.507 905.329 755.307 910.046 753.515C914.752 751.666 919.259 749.484 923.52 746.993C925.997 745.605 928.3 744.177 930.678 742.851L931.223 742.541C936.932 738.912 943.045 735.75 949.477 733.099C967.955 725.666 991.584 727.467 1007.49 738.586C1012.63 742.048 1017.36 745.925 1021.6 750.161C1021.86 750.378 1022.1 750.606 1022.32 750.844C1024.5 752.914 1026.61 755.13 1028.71 757.283L1031.34 760.016C1031.36 759.692 1031.36 759.367 1031.34 759.043L1029.5 756.911ZM1017.59 687.277L1016.92 687.443C1015.36 687.815 1013.8 688.229 1012.24 688.581C1007.31 689.789 1002.26 690.641 997.157 691.128C995.745 691.232 994.358 691.315 992.921 691.335H992.079C988.627 691.329 985.184 691.038 981.8 690.466C976.762 689.603 971.899 688.138 967.36 686.117L965.626 685.393C965.082 685.144 964.537 684.834 963.992 684.544C962.927 683.985 961.812 683.426 960.747 682.805L957.701 680.837C957.193 680.514 956.713 680.161 956.264 679.781L954.877 678.663C953.812 677.814 952.796 676.903 951.806 676.013L951.533 675.702C951.348 675.552 951.182 675.385 951.038 675.205C950.853 675.333 950.679 675.471 950.518 675.62L950.691 675.785C950.77 675.89 950.861 675.987 950.964 676.075C952.038 677.133 953.179 678.142 954.382 679.098L955.793 680.216C956.251 680.609 956.739 680.975 957.255 681.314L960.326 683.384C961.391 684.005 962.506 684.565 963.62 685.165C964.165 685.434 964.685 685.765 965.255 686.014L967.013 686.739C971.605 688.811 976.537 690.304 981.652 691.17C985.202 691.789 988.824 692.081 992.451 692.039H993.318C994.63 692.039 995.794 692.039 997.181 691.853C1002.35 691.38 1007.45 690.528 1012.44 689.306C1014.07 688.933 1015.73 688.519 1017.39 688.105L1018.01 687.96C1018.73 687.774 1019.47 687.567 1020.22 687.401C1020.22 687.194 1020.04 686.946 1019.94 686.718L1017.59 687.277ZM997.38 697.361C995.918 695.621 994.63 693.841 993.367 691.998C993.219 691.791 993.095 691.563 992.921 691.335C989.415 685.804 986.313 680.099 983.633 674.253L983.484 673.963C983.404 673.816 983.337 673.664 983.286 673.508C981.825 670.526 980.413 667.524 978.878 664.563H978.135C979.645 667.524 981.082 670.485 982.519 673.487L982.717 673.922C982.717 674.087 982.89 674.294 982.989 674.46C985.607 680.227 988.643 685.856 992.079 691.315C992.205 691.542 992.345 691.763 992.5 691.977C993.794 693.942 995.208 695.849 996.736 697.692C999.673 701.294 1003.17 704.553 1007.14 707.382C1011.14 710.194 1015.63 712.471 1020.46 714.132C1022.81 714.94 1025.21 715.631 1027.65 716.203C1027.65 715.955 1027.52 715.685 1027.5 715.437C1015.17 712.608 1004.48 706.161 997.38 697.278V697.361ZM1022.92 695.145C1021.47 692.644 1019.81 690.229 1017.96 687.919C1017.81 687.691 1017.64 687.505 1017.49 687.277C1017.34 687.049 1016.58 686.2 1016.1 685.683C1013.02 682.164 1008.95 679.322 1004.27 677.4C1003.67 677.173 1003.08 676.924 1002.48 676.717L1000.67 676.158L999.757 675.868L998.816 675.62L996.934 675.185C994.424 674.617 991.865 674.216 989.28 673.984C987.249 673.777 985.218 673.653 983.187 673.59H982.419C979.522 673.59 976.648 673.59 973.751 673.756C968.574 674.046 963.447 674.564 958.345 675.123L951.484 675.827H950.642H950.171C950.027 675.934 949.894 676.052 949.775 676.179L950.914 676.075H951.756L958.394 675.413C963.521 674.916 968.648 674.398 973.8 674.129C976.723 673.984 979.695 673.922 982.618 673.963H983.385C985.342 673.963 987.299 674.149 989.231 674.336C991.738 674.602 994.22 675.01 996.661 675.557L998.519 676.013L999.435 676.241L1000.35 676.531L1002.14 677.09C1002.75 677.297 1003.3 677.545 1003.89 677.752C1008.5 679.693 1012.48 682.534 1015.49 686.035L1016.7 687.484C1016.89 687.681 1017.06 687.889 1017.22 688.105C1019.47 691.014 1021.44 694.068 1023.11 697.236C1023.25 697.465 1023.38 697.7 1023.49 697.94C1023.46 696.864 1023.21 695.932 1022.92 695.062V695.145ZM966.32 827.787C963.516 824.118 960.143 820.776 956.289 817.848C952.394 814.941 947.993 812.546 943.236 810.746C938.494 808.943 933.502 807.642 928.375 806.874C923.224 806.174 917.982 806.062 912.795 806.542C904.364 807.535 896.069 809.214 888.027 811.553L887.383 811.698C885.823 812.112 884.287 812.485 882.727 812.837C877.8 814.062 872.752 814.915 867.643 815.384C866.229 815.525 864.806 815.594 863.382 815.591H861.624L861.401 816.254H863.878C865.177 816.253 866.475 816.191 867.766 816.067C872.93 815.597 878.035 814.752 883.024 813.541L887.977 812.34L888.597 812.174C896.534 809.933 904.7 808.304 912.994 807.309C933.353 805.238 955.1 813.334 965.8 828.159C966.079 828.506 966.336 828.866 966.568 829.236H967.459C966.939 828.594 966.667 828.139 966.32 827.704V827.787ZM867.791 821.575C866.33 819.856 865.017 818.055 863.754 816.212C863.605 816.005 863.481 815.777 863.308 815.55C862.937 814.99 862.565 814.411 862.218 813.81C862.093 814.086 861.994 814.37 861.921 814.659C862.078 814.973 862.26 815.277 862.466 815.57C862.6 815.798 862.749 816.019 862.912 816.233C864.194 818.203 865.608 820.111 867.147 821.948C870.077 825.555 873.576 828.814 877.55 831.638C879.665 833.143 881.936 834.487 884.336 835.655H885.872C878.59 832.237 872.411 827.391 867.865 821.533L867.791 821.575ZM900.337 833.149C898.405 829.133 896.498 825.116 894.318 821.181C892.646 818.046 890.692 815.022 888.473 812.133C888.314 811.918 888.14 811.71 887.953 811.512L886.59 809.918C883.508 806.401 879.455 803.56 874.776 801.635C874.157 801.428 873.587 801.18 872.993 800.952L871.184 800.414L870.243 800.124L869.302 799.875L867.816 799.503C867.816 799.668 867.816 799.792 867.643 799.958L869.153 800.331L870.07 800.579L870.961 800.848L872.77 801.407C873.389 801.614 873.934 801.863 874.528 802.091C879.126 804.032 883.094 806.873 886.095 810.373C886.516 810.849 886.912 811.305 887.309 811.802C887.504 812.007 887.686 812.221 887.854 812.444C890.1 815.344 892.063 818.391 893.724 821.554C895.879 825.468 897.761 829.505 899.693 833.501C899.866 833.895 900.04 834.226 900.213 834.599C900.452 834.588 900.692 834.588 900.931 834.599C900.733 833.916 900.56 833.522 900.337 833.108V833.149Z" fill="white"/>
<path d="M999.46 695.497C991.881 694.628 978.778 680.506 974.815 669.677C974.568 668.932 977.515 662.099 980.661 653.671C982.543 648.557 984.5 642.822 985.813 637.48L1023.91 652.574C1019.95 658.859 1016.94 665.529 1014.94 672.431C1014.77 673.168 1014.68 673.916 1014.67 674.667C1014.68 674.791 1014.68 674.916 1014.67 675.04C1014.42 679.347 1011.35 696.843 999.46 695.497Z" fill="#EB9481"/>
<path d="M981.206 652.201C986.778 663.714 996.76 675.765 1014.42 677.193C1014.54 676.282 1014.62 675.558 1014.64 675.123C1014.64 674.998 1014.64 674.854 1014.64 674.75C1014.64 673.999 1014.73 673.249 1014.92 672.514C1016.93 665.585 1019.95 658.889 1023.91 652.574L985.812 637.48C984.648 642.304 982.915 647.48 981.206 652.201Z" fill="#263238"/>
<path d="M979.819 597.704C973.23 609.133 974.394 644.789 983.187 653.837C995.918 666.944 1019.94 671.147 1034.06 657.75C1047.78 644.747 1045.26 598.325 1035.15 589.835C1020.27 577.329 989.578 580.828 979.819 597.704Z" fill="#EB9481"/>
<path d="M1015.24 624.538C1015.24 624.538 1015.01 624.663 1015.04 624.766C1015.31 627.147 1015.16 629.922 1012.56 630.978C1012.56 630.978 1012.56 631.123 1012.56 631.102C1015.81 630.419 1015.96 626.775 1015.24 624.538Z" fill="#263238"/>
<path d="M1012.49 622.136C1007.86 622.136 1008.1 629.839 1012.49 629.88C1016.87 629.922 1016.48 622.136 1012.49 622.136Z" fill="#263238"/>
<path d="M1032.2 623.669C1032.2 623.669 1032.43 623.772 1032.43 623.876C1032.43 626.278 1032.9 629.032 1035.52 629.756V629.901C1032.3 629.591 1031.73 625.926 1032.2 623.669Z" fill="#263238"/>
<path d="M1034.68 621.101C1039.29 620.708 1039.91 628.431 1035.65 628.804C1031.39 629.176 1030.82 621.432 1034.68 621.101Z" fill="#263238"/>
<path d="M1008.35 618.741C1009.54 619.217 1010.7 619.486 1011.92 619.859C1013.12 620.383 1014.49 620.572 1015.83 620.397C1016.24 620.271 1016.58 620.036 1016.81 619.728C1017.04 619.421 1017.14 619.059 1017.09 618.699C1016.88 618.001 1016.45 617.362 1015.84 616.846C1015.24 616.331 1014.48 615.956 1013.65 615.759C1012.03 615.155 1010.19 615.081 1008.5 615.552C1008.12 615.675 1007.8 615.887 1007.56 616.163C1007.32 616.439 1007.19 616.767 1007.17 617.106C1007.16 617.444 1007.26 617.78 1007.47 618.07C1007.68 618.361 1007.99 618.594 1008.35 618.741Z" fill="#263238"/>
<path d="M1037.83 616.712C1036.57 616.531 1035.33 616.296 1034.11 616.008C1032.76 615.914 1031.48 615.44 1030.49 614.662C1030.2 614.373 1030.04 614.006 1030.04 613.626C1030.04 613.247 1030.2 612.88 1030.49 612.591C1031.13 612.106 1031.91 611.768 1032.76 611.612C1033.6 611.456 1034.48 611.486 1035.3 611.701C1037.06 611.939 1038.64 612.723 1039.73 613.896C1040 614.167 1040.15 614.498 1040.19 614.846C1040.22 615.194 1040.13 615.542 1039.93 615.846C1039.72 616.15 1039.41 616.395 1039.04 616.549C1038.66 616.704 1038.24 616.76 1037.83 616.712Z" fill="#263238"/>
<path d="M1024.92 642.263C1023.75 643.612 1022.18 644.683 1020.36 645.368C1019.37 645.722 1018.27 645.809 1017.22 645.617C1014.89 645.161 1014.74 643.401 1015.16 641.89C1015.37 641.083 1015.69 640.298 1016.1 639.55C1018.62 641.215 1021.71 642.165 1024.92 642.263V642.263Z" fill="#263238"/>
<path d="M1020.36 645.368C1019.37 645.722 1018.27 645.809 1017.22 645.617C1014.89 645.161 1014.74 643.401 1015.16 641.89C1016.37 641.896 1017.54 642.243 1018.49 642.874C1019.43 643.505 1020.09 644.384 1020.36 645.368Z" fill="#FF99BA"/>
<path d="M996.834 612.032C996.29 614.993 989.28 624.145 995.125 624.89C998.841 625.367 997.602 618.679 997.107 616.608C996.801 615.097 996.709 613.561 996.834 612.032V612.032Z" fill="#EBEBEB"/>
<path d="M1002.56 605.572C1002.18 607.642 997.949 613.854 1001.34 614.206C1003.5 614.475 1002.83 610.065 1002.63 608.595C1002.48 607.592 1002.45 606.579 1002.56 605.572V605.572Z" fill="#EBEBEB"/>
<path d="M976.4 628.348C976.4 628.348 965.8 605.82 969.589 594.246C971.298 588.986 980.735 586.647 980.735 586.647C980.508 584.379 981.046 582.103 982.29 580.079C983.534 578.055 985.432 576.363 987.769 575.196C996.512 570.331 1014.49 574.265 1014.49 574.265C1014.49 574.265 1029.36 561.675 1044.84 569.73C1060.32 577.785 1046.27 592.092 1046.27 592.092C1046.27 592.092 1050.93 600.375 1034.75 603.833C1019 607.29 990.172 597.621 990.172 597.621C989.79 606.412 987.845 615.107 984.401 623.42C983.729 624.772 982.629 625.945 981.219 626.813C979.81 627.681 978.144 628.212 976.4 628.348Z" fill="#263238"/>
<path d="M1017.34 574.927C1013.86 573.13 1009.97 571.946 1005.92 571.449C1002.33 570.892 998.658 570.85 995.051 571.324C988.636 572.277 982.543 575.217 980.388 580.601C979.857 581.919 979.648 583.314 979.776 584.702C979.904 586.089 980.365 587.441 981.131 588.676C981.131 588.676 981.379 588.676 981.329 588.676C978.258 584.121 981.577 578.178 986.283 575.403C991.584 572.256 998.816 571.801 1005.08 572.463C1009.24 573.008 1013.31 573.968 1017.19 575.321C1017.42 575.3 1017.54 575.051 1017.34 574.927Z" fill="#263238"/>
<path d="M983.459 627.106C983.459 627.106 975.855 614.807 969.316 616.919C962.778 619.031 967.211 636.134 974.022 639.157C974.858 639.59 975.789 639.88 976.76 640.011C977.731 640.141 978.723 640.109 979.679 639.917C980.636 639.724 981.536 639.375 982.33 638.889C983.123 638.403 983.793 637.79 984.301 637.086L983.459 627.106Z" fill="#EB9481"/>
<path d="M970.728 621.805C970.728 621.805 970.58 621.805 970.728 621.95C975.484 624.207 977.49 628.41 978.704 632.655C978.479 632.202 978.139 631.796 977.708 631.463C977.277 631.13 976.766 630.88 976.208 630.728C975.65 630.577 975.06 630.528 974.477 630.585C973.895 630.643 973.334 630.805 972.834 631.061C972.685 631.061 972.834 631.309 972.834 631.288C973.756 631.159 974.703 631.268 975.548 631.601C976.394 631.934 977.097 632.475 977.565 633.152C978.314 634.298 978.92 635.505 979.373 636.755C979.546 637.148 980.388 637.045 980.289 636.589C981.305 631.164 977.54 623.11 970.728 621.805Z" fill="#263238"/>
<path d="M967.558 670.07C976.648 673.715 980.265 684.772 973.057 700.922C965.849 717.073 931.372 740.988 921.043 734.673C907.049 725.997 933.551 694.959 944.672 684.109C955.372 673.715 963.546 668.476 967.558 670.07Z" fill="#EB9481"/>
<path d="M940.982 674.874C885.203 698.624 840.62 735.232 841.611 750.823C842.948 773.206 869.525 827.435 887.135 850.832C892.312 857.707 955.372 822.941 949.849 815.632C943.186 806.77 908.56 754.281 908.263 753.266C907.569 751.196 949.824 704.691 960.97 693.344C981.429 672.493 971.323 661.974 940.982 674.874Z" fill="#EB9481"/>
<path d="M995.745 886.239C994.211 887.735 992.167 888.802 989.887 889.298C987.607 889.794 985.2 889.695 982.989 889.014C982.516 892.341 980.677 895.429 977.788 897.752C972.462 901.624 962.926 896.323 962.926 896.323C961.603 899.696 959.09 902.655 955.719 904.812C950.171 908.084 939.57 903.922 939.57 903.922C936.308 906.46 932.06 907.93 927.607 908.063C915.693 908.063 906.157 895.06 900.015 886.881C893.872 878.702 885.525 850.708 883.296 845.469L945.712 811.967C945.712 811.967 985.813 842.053 991.435 852.53C996.091 861.33 1001.34 880.317 995.745 886.239Z" fill="#EB9481"/>
<path d="M983.707 888.123C981.379 877.771 975.484 868.474 970.258 858.97C970.228 858.931 970.182 858.903 970.129 858.891C970.077 858.879 970.02 858.884 969.971 858.904C969.922 858.925 969.884 858.96 969.864 859.002C969.843 859.045 969.843 859.092 969.862 859.135C975.212 868.536 978.233 878.702 983.137 888.268C983.261 888.538 983.757 888.393 983.707 888.123Z" fill="#263238"/>
<path d="M963.546 895.722C962.76 893.408 961.601 891.193 960.103 889.138C958.666 886.86 957.205 884.624 955.719 882.409C952.697 877.957 949.576 873.567 946.282 869.24C946.134 869.053 945.762 869.24 945.886 869.405C948.883 873.836 951.806 878.309 954.555 882.864C955.942 885.121 957.304 887.419 958.642 889.697C959.748 891.93 961.143 894.054 962.803 896.033C962.869 896.083 962.953 896.116 963.042 896.126C963.13 896.136 963.221 896.124 963.301 896.09C963.382 896.056 963.448 896.003 963.492 895.938C963.535 895.872 963.554 895.797 963.546 895.722V895.722Z" fill="#263238"/>
<path d="M939.372 903.736C938.622 901.647 937.44 899.685 935.879 897.938L931.644 891.913C928.87 887.875 926.071 883.858 923.445 879.738C923.322 879.53 922.925 879.738 923.074 879.882C925.699 884.024 928.275 888.289 930.95 892.472C932.263 894.542 933.6 896.613 934.938 898.58C935.95 900.537 937.377 902.326 939.149 903.86C939.149 903.86 939.396 903.736 939.372 903.736Z" fill="#263238"/>
<path d="M942.938 715.313L940.833 716.803C943.508 713.863 946.01 710.84 948.387 707.734C948.387 707.734 948.387 707.589 948.263 707.734C944.994 710.902 941.799 714.091 938.728 717.404C937.266 718.957 935.755 720.489 934.393 722.104C933.031 723.719 924.486 733.41 922.702 735.128C922.504 735.335 922.851 735.604 923.049 735.418C924.634 733.741 933.402 724.589 935.062 722.995C936.721 721.4 937.886 720.137 939.223 718.667C939.794 718.359 940.34 718.02 940.858 717.652C941.7 717.052 942.517 716.451 943.335 715.789C944.895 714.505 946.431 713.159 947.941 711.813C946.307 712.911 944.647 714.091 942.938 715.313Z" fill="#263238"/>
<path d="M522.427 497.221C620.994 494.857 720.236 494.857 818.803 497.221C720.194 499.586 620.994 499.586 522.427 497.221Z" fill="#717171"/>
<path d="M525.635 557.318C599.127 554.954 673.38 554.954 746.704 557.318C673.169 559.683 598.959 559.683 525.635 557.318Z" fill="#717171"/>
<path d="M811.078 241.976C871.949 239.577 933.496 239.577 994.24 241.976C933.327 244.411 871.823 244.411 811.078 241.976Z" fill="#717171"/>
<path d="M735.222 259.621C788.525 257.186 841.947 257.186 895.251 259.621C841.946 262.021 788.526 262.021 735.222 259.621V259.621Z" fill="#717171"/>
<path d="M291.269 523.229C435.552 520.865 595.961 520.936 740.33 523.229C595.919 525.523 435.595 525.558 291.269 523.229V523.229Z" fill="#717171"/>
</svg>
