<svg width="38" height="38" viewBox="0 0 38 38" fill="none" xmlns="http://www.w3.org/2000/svg">
<g clip-path="url(#clip0_29_461)">
<path d="M30.9403 38H34.9808L29.6578 20.3508H25.6173L30.9403 38Z" fill="#FCC21B"/>
<path d="M25.3175 38H21.2147L26.0003 20.3508H30.1061L25.3175 38ZM12.8339 38H16.8714L11.5484 20.3508H7.51094L12.8339 38Z" fill="#FCC21B"/>
<path d="M7.2111 38H3.10532L7.89094 20.3508H11.9967L7.2111 38Z" fill="#FCC21B"/>
<path d="M-1.79015 25.4333L-4.93109 23.0702L11.7325 -0.25531L14.8734 2.10781L-1.79015 25.4333ZM8.14031 25.4333L4.99938 23.0702L21.663 -0.25531L24.8069 2.10781L8.14031 25.4333ZM18.0708 25.4333L14.9298 23.0702L31.5934 -0.25531L34.7344 2.10781L18.0708 25.4333ZM27.9983 25.4333L24.8603 23.0702L41.5269 -0.25531L44.6678 2.10781L27.9983 25.4333Z" fill="#2F2F2F"/>
<path d="M9.39609 4.05533C9.39609 5.66736 8.08984 6.97361 6.47781 6.97361C4.86875 6.97361 3.5625 5.66736 3.5625 4.05533C3.5625 2.4433 4.86875 1.14001 6.47781 1.14001C8.08984 1.14001 9.39609 2.44626 9.39609 4.05533V4.05533Z" fill="#2F2F2F"/>
<path d="M6.47782 7.66236C4.49172 7.66236 2.87672 6.04439 2.87672 4.05533C2.87672 2.06923 4.49172 0.451263 6.47782 0.451263C8.46688 0.451263 10.0849 2.06626 10.0849 4.05533C10.0849 6.04439 8.46688 7.66236 6.47782 7.66236ZM6.47782 1.82876C5.25172 1.82876 4.25126 2.82923 4.25126 4.05829C4.25126 5.28736 5.24876 6.28783 6.47782 6.28783C7.70985 6.28783 8.70735 5.28736 8.70735 4.05829C8.70735 2.82923 7.70688 1.82876 6.47782 1.82876Z" fill="#2F2F2F"/>
<path d="M5.51891 1.14001H6.47484V6.97361H5.51891V1.14001Z" fill="#2F2F2F"/>
<path d="M6.47781 7.67423H5.52187C5.13593 7.67423 4.82124 7.36251 4.82124 6.97657V1.14001C4.82124 0.754071 5.13593 0.442352 5.52187 0.442352H6.47781C6.86671 0.442352 7.17843 0.75704 7.17843 1.14001V6.9736C7.17843 7.36251 6.86374 7.67423 6.47781 7.67423V7.67423Z" fill="#2F2F2F"/>
<path d="M8.48469 4.05533C8.48469 5.66736 7.17548 6.97361 5.56641 6.97361C3.95438 6.97361 2.64813 5.66736 2.64813 4.05533C2.64813 2.4433 3.95141 1.14001 5.56641 1.14001C7.17844 1.14001 8.48469 2.44626 8.48469 4.05533V4.05533Z" fill="#ED6C30"/>
<path d="M5.56938 7.66236C3.58032 7.66236 1.96532 6.04439 1.96532 4.05533C1.96532 2.06923 3.58329 0.451263 5.56938 0.451263C7.55844 0.451263 9.17641 2.06626 9.17641 4.05533C9.17344 6.04439 7.55547 7.66236 5.56938 7.66236V7.66236ZM5.56938 1.82876C4.34032 1.82876 3.33985 2.82923 3.33985 4.05829C3.33985 5.28736 4.34032 6.28783 5.56938 6.28783C6.79547 6.28783 7.79891 5.28736 7.79891 4.05829C7.79891 2.82923 6.79547 1.82876 5.56938 1.82876V1.82876Z" fill="#2F2F2F"/>
<path d="M32.8937 6.97658C34.5055 6.97658 35.812 5.67002 35.812 4.0583C35.812 2.44657 34.5055 1.14001 32.8937 1.14001C31.282 1.14001 29.9755 2.44657 29.9755 4.0583C29.9755 5.67002 31.282 6.97658 32.8937 6.97658Z" fill="#2F2F2F"/>
<path d="M32.8908 7.66236C30.9017 7.66236 29.2867 6.04439 29.2867 4.05533C29.2867 2.06923 30.9017 0.451263 32.8908 0.451263C34.8798 0.451263 36.4948 2.06626 36.4948 4.05533C36.4978 6.04439 34.8798 7.66236 32.8908 7.66236ZM32.8908 1.82876C31.6617 1.82876 30.6612 2.82923 30.6612 4.05829C30.6612 5.28736 31.6617 6.28783 32.8908 6.28783C34.1198 6.28783 35.1203 5.28736 35.1203 4.05829C35.1203 2.82923 34.1198 1.82876 32.8908 1.82876Z" fill="#2F2F2F"/>
<path d="M31.9348 1.14001H32.8938V6.97361H31.9348V1.14001Z" fill="#2F2F2F"/>
<path d="M32.8908 7.67423H31.9319C31.5459 7.67423 31.2342 7.36251 31.2342 6.97657V1.14001C31.2342 0.754071 31.5459 0.442352 31.9319 0.442352H32.8908C33.2767 0.442352 33.5884 0.75704 33.5884 1.14001V6.9736C33.5893 7.06561 33.5719 7.15688 33.5372 7.2421C33.5025 7.32732 33.4512 7.40479 33.3863 7.46999C33.3214 7.53519 33.2441 7.58682 33.1591 7.62189C33.074 7.65695 32.9828 7.67474 32.8908 7.67423V7.67423Z" fill="#2F2F2F"/>
<path d="M31.9823 6.97658C33.5941 6.97658 34.9006 5.67002 34.9006 4.0583C34.9006 2.44657 33.5941 1.14001 31.9823 1.14001C30.3706 1.14001 29.0641 2.44657 29.0641 4.0583C29.0641 5.67002 30.3706 6.97658 31.9823 6.97658Z" fill="#ED6C30"/>
<path d="M31.9823 7.66236C29.9933 7.66236 28.3783 6.04439 28.3783 4.05533C28.3783 2.06923 29.9963 0.451263 31.9823 0.451263C33.9714 0.451263 35.5894 2.06626 35.5894 4.05533C35.5864 6.04439 33.9714 7.66236 31.9823 7.66236ZM31.9823 1.82876C30.7533 1.82876 29.7528 2.82923 29.7528 4.05829C29.7528 5.28736 30.7533 6.28783 31.9823 6.28783C33.2114 6.28783 34.2119 5.28736 34.2119 4.05829C34.2089 2.82923 33.2114 1.82876 31.9823 1.82876Z" fill="#2F2F2F"/>
</g>
<defs>
<clipPath id="clip0_29_461">
<rect width="38" height="38" fill="white"/>
</clipPath>
</defs>
</svg>
