<svg width="38" height="38" viewBox="0 0 38 38" fill="none" xmlns="http://www.w3.org/2000/svg">
<path d="M15.6417 27.3014C15.3286 27.3014 15.0226 27.2085 14.7623 27.0345C14.502 26.8605 14.2991 26.6132 14.1793 26.324C14.0594 26.0347 14.0281 25.7164 14.0892 25.4093C14.1502 25.1022 14.301 24.8201 14.5223 24.5987L20.1194 19L14.5223 13.4013C14.2339 13.1027 14.0743 12.7028 14.0779 12.2876C14.0815 11.8725 14.248 11.4754 14.5416 11.1818C14.8352 10.8882 15.2323 10.7217 15.6474 10.7181C16.0626 10.7145 16.4625 10.8741 16.7612 11.1625L23.4777 17.8806C23.7745 18.1775 23.9412 18.5802 23.9412 19C23.9412 19.4198 23.7745 19.8225 23.4777 20.1194L16.7612 26.8375C16.6143 26.9847 16.4398 27.1015 16.2477 27.1811C16.0556 27.2608 15.8497 27.3016 15.6417 27.3014V27.3014Z" fill="white"/>
</svg>
