<svg width="28" height="28" viewBox="0 0 38 38" fill="none" xmlns="http://www.w3.org/2000/svg">
<path d="M19 26.9167C18.5958 26.9146 18.1971 26.8226 17.8329 26.6474C17.4686 26.4721 17.148 26.2179 16.8942 25.9033L10.2284 17.8283C9.83884 17.3422 9.59373 16.7564 9.52095 16.1377C9.44816 15.5191 9.55063 14.8924 9.81668 14.3292C10.0325 13.8396 10.3846 13.4226 10.831 13.1278C11.2774 12.833 11.7992 12.6729 12.3342 12.6667H25.6659C26.2008 12.6729 26.7226 12.833 27.169 13.1278C27.6155 13.4226 27.9676 13.8396 28.1834 14.3292C28.4494 14.8924 28.5519 15.5191 28.4791 16.1377C28.4063 16.7564 28.1612 17.3422 27.7717 17.8283L21.1059 25.9033C20.852 26.2179 20.5314 26.4721 20.1672 26.6474C19.8029 26.8226 19.4042 26.9146 19 26.9167Z" fill="white"/>
</svg>
