<svg width="30" height="30" viewBox="0 0 38 38" fill="none" xmlns="http://www.w3.org/2000/svg">
<path d="M31.7458 17.4167H6.25417C5.42344 17.4167 4.75 18.0901 4.75 18.9208V19.0792C4.75 19.9099 5.42344 20.5833 6.25417 20.5833H31.7458C32.5766 20.5833 33.25 19.9099 33.25 19.0792V18.9208C33.25 18.0901 32.5766 17.4167 31.7458 17.4167Z" fill="white"/>
<path d="M31.7458 25.3333H6.25417C5.42344 25.3333 4.75 26.0068 4.75 26.8375V26.9958C4.75 27.8266 5.42344 28.5 6.25417 28.5H31.7458C32.5766 28.5 33.25 27.8266 33.25 26.9958V26.8375C33.25 26.0068 32.5766 25.3333 31.7458 25.3333Z" fill="white"/>
<path d="M31.7458 9.5H6.25417C5.42344 9.5 4.75 10.1734 4.75 11.0042V11.1625C4.75 11.9932 5.42344 12.6667 6.25417 12.6667H31.7458C32.5766 12.6667 33.25 11.9932 33.25 11.1625V11.0042C33.25 10.1734 32.5766 9.5 31.7458 9.5Z" fill="white"/>
</svg>
