<svg width="38" height="38" viewBox="0 0 38 38" fill="none" xmlns="http://www.w3.org/2000/svg">
<path d="M31.7644 29.6044C33.4698 27.5525 34.656 25.1201 35.2225 22.5128C35.789 19.9056 35.7192 17.2003 35.019 14.6257C34.3188 12.0512 33.0089 9.68314 31.2 7.72192C29.3911 5.76071 27.1364 4.26402 24.6267 3.35846C22.117 2.45291 19.4261 2.16514 16.7817 2.51949C14.1373 2.87384 11.6171 3.85989 9.43435 5.39422C7.25161 6.92855 5.47051 8.96603 4.24174 11.3343C3.01297 13.7026 2.37267 16.3319 2.37501 19C2.3759 22.8786 3.7427 26.633 6.23557 29.6044L6.21182 29.6246C6.29494 29.7243 6.38994 29.8098 6.47544 29.9084C6.58232 30.0307 6.69751 30.1459 6.80794 30.2646C7.14044 30.6256 7.48244 30.9724 7.84107 31.2977C7.95032 31.3975 8.06313 31.4901 8.17357 31.5851C8.55357 31.9129 8.94426 32.224 9.34919 32.5137C9.40144 32.5494 9.44894 32.5957 9.50119 32.6325V32.6182C12.2824 34.5754 15.6003 35.6258 19.0012 35.6258C22.4021 35.6258 25.7199 34.5754 28.5012 32.6182V32.6325C28.5534 32.5957 28.5998 32.5494 28.6532 32.5137C29.0569 32.2228 29.4488 31.9129 29.8288 31.5851C29.9393 31.4901 30.0521 31.3963 30.1613 31.2977C30.5199 30.9712 30.8619 30.6256 31.1944 30.2646C31.3049 30.1459 31.4189 30.0307 31.5269 29.9084C31.6113 29.8098 31.7074 29.7243 31.7906 29.6234L31.7644 29.6044ZM19 9.49999C20.0569 9.49999 21.0901 9.8134 21.9688 10.4006C22.8476 10.9878 23.5325 11.8223 23.937 12.7988C24.3414 13.7752 24.4473 14.8497 24.2411 15.8863C24.0349 16.9228 23.5259 17.875 22.7786 18.6223C22.0313 19.3697 21.0791 19.8786 20.0425 20.0848C19.0059 20.291 17.9315 20.1852 16.955 19.7807C15.9786 19.3763 15.144 18.6913 14.5568 17.8126C13.9697 16.9338 13.6563 15.9006 13.6563 14.8437C13.6563 13.4265 14.2193 12.0673 15.2214 11.0651C16.2236 10.063 17.5828 9.49999 19 9.49999V9.49999ZM9.50832 29.6044C9.52892 28.0451 10.1626 26.5567 11.2722 25.4611C12.3818 24.3655 13.8781 23.7508 15.4375 23.75H22.5625C24.1219 23.7508 25.6182 24.3655 26.7278 25.4611C27.8374 26.5567 28.4711 28.0451 28.4917 29.6044C25.8873 31.9513 22.5058 33.2501 19 33.2501C15.4942 33.2501 12.1127 31.9513 9.50832 29.6044V29.6044Z" fill="white"/>
</svg>
